<?xml version="1.0" standalone="no"?>
<!DOCTYPE svg PUBLIC "-//W3C//DTD SVG 1.1//EN" "http://www.w3.org/Graphics/SVG/1.1/DTD/svg11.dtd" >
<svg xmlns="http://www.w3.org/2000/svg" xmlns:xlink="http://www.w3.org/1999/xlink" version="1.1">
<metadata></metadata>
<defs>
<font id="intro_thinregular" horiz-adv-x="1456" >
<font-face units-per-em="2048" ascent="1536" descent="-512" />
<missing-glyph horiz-adv-x="555" />
<glyph horiz-adv-x="0" />
<glyph horiz-adv-x="682" />
<glyph unicode=" "  horiz-adv-x="555" />
<glyph unicode="&#x09;" horiz-adv-x="555" />
<glyph unicode="&#xa0;" horiz-adv-x="555" />
<glyph unicode="!" horiz-adv-x="434" d="M182 8q0 31 33 31q35 0 35 -31q0 -13 -10.5 -23t-24.5 -10q-33 0 -33 33zM199 227v1205h37v-1205h-37z" />
<glyph unicode="&#x22;" horiz-adv-x="581" d="M168 1018v416h35l-4 -416h-31zM379 1018v416h35l-4 -416h-31z" />
<glyph unicode="#" horiz-adv-x="1382" d="M109 451v34h276l61 418h-276v35h283l71 494h35l-72 -494h512l74 494h37l-74 -494h240v-35h-246l-61 -418h245v-34h-251l-64 -451h-37l66 451h-512l-68 -451h-37l68 451h-270zM420 485h514l59 418h-510z" />
<glyph unicode="$" horiz-adv-x="1323" d="M113 358h34q8 -87 56.5 -154.5t122 -107t155 -60t168.5 -22.5v707q-54 8 -85.5 13.5t-80 15.5t-78 19.5t-69 25t-63.5 32.5t-50 42t-40 53.5t-23.5 66.5t-9.5 82q0 95 45.5 169.5t120 118.5t159.5 67.5t174 25.5v135h29v-135q87 -2 169 -23.5t156 -62t121.5 -110.5 t53.5 -160h-35q-5 66 -36 120.5t-77.5 90t-107.5 60.5t-121.5 36.5t-122.5 13.5v-663q210 -30 296 -60q178 -60 223 -196q17 -52 17 -117q0 -81 -33 -148t-87 -111.5t-125 -76.5t-144 -46.5t-147 -16.5v-136h-29v136q-73 0 -145 13.5t-140 43.5t-121 73t-88 106.5t-42 139.5 zM184 1071q0 -52 16 -95t40 -72.5t64 -53.5t76 -38t88.5 -25.5t90 -17t90.5 -11.5v659q-63 -2 -126.5 -15t-125 -40.5t-108.5 -66.5t-76 -97t-29 -127zM678 14q86 2 170.5 24.5t160 64.5t122.5 114.5t47 163.5q0 43 -9 79.5t-24 64.5t-40.5 52t-50.5 41t-63 31.5t-69.5 24 t-78 18t-80.5 13.5t-85 12v-703z" />
<glyph unicode="%" horiz-adv-x="1560" d="M86 1133q0 100 46 174t115 107t149.5 33t149.5 -33t115 -107t46 -174t-46 -174t-115 -107t-149.5 -33t-149.5 33t-115 107t-46 174zM123 1133q0 -67 23.5 -122t62 -88.5t88 -51.5t101 -18t101 18t88 51.5t62 88.5t23.5 122t-23.5 121.5t-62 88t-88 51.5t-101 18t-101 -18 t-88 -51.5t-62 -88t-23.5 -121.5zM408 -2l700 1432h41l-698 -1432h-43zM852 295q0 76 27 137.5t70.5 99t99.5 58t114.5 20.5t114.5 -20.5t99.5 -58t70.5 -99t27 -137.5t-27 -137.5t-70.5 -99t-99.5 -58t-114.5 -20.5t-114.5 20.5t-99.5 58t-70.5 99t-27 137.5zM889 295 q0 -67 23.5 -121.5t62 -88t88 -52t101 -18.5t101 18t88 51.5t62 88t23.5 122.5q0 67 -23.5 121.5t-62 87.5t-88 51.5t-101 18.5t-101 -18.5t-88 -51.5t-62 -87.5t-23.5 -121.5z" />
<glyph unicode="&#x26;" horiz-adv-x="1339" d="M119 410q-3 321 350 399q-68 16 -121 43q-141 83 -141 268q0 82 38 147t100 104t135.5 59t150.5 20q82 0 152 -18t128.5 -55t96 -99t47.5 -145l-37 -3q-8 75 -43 131.5t-88.5 90t-117.5 49.5t-138 16q-68 0 -134.5 -18t-124 -53t-93 -94t-35.5 -132q0 -165 123 -235 q85 -54 204 -60q27 -2 82 -2v-32q-37 0 -84 -3q-89 -6 -160.5 -28.5t-130.5 -65.5t-91.5 -115t-32.5 -169q0 -119 64.5 -211t166 -137.5t219.5 -45.5q212 0 328.5 121t116.5 332v342h202v-29h-168v-313q0 -223 -127.5 -355t-351.5 -132q-96 0 -183 30t-154.5 84 t-107.5 135.5t-40 178.5z" />
<glyph unicode="'" horiz-adv-x="368" d="M168 1018v416h35l-6 -416h-29z" />
<glyph unicode="(" horiz-adv-x="530" d="M115.5 579q-2.5 191 29 364.5t105 329t180.5 259.5l25 -25q-102 -97 -171.5 -247.5t-100.5 -319.5t-29 -356t36.5 -357.5t102.5 -323.5t162 -255l-25 -25q-97 105 -168 261t-107.5 330t-39 365z" />
<glyph unicode=")" horiz-adv-x="528" d="M76 -352q94 102 162 255t102.5 323.5t36.5 357.5t-29 356t-100.5 319.5t-171.5 247.5l24 25q106 -100 178.5 -254.5t104.5 -328t29.5 -364.5t-38 -366.5t-106 -332.5t-168.5 -263z" />
<glyph unicode="*" horiz-adv-x="847" d="M143 1223l11 30l260 -88l2 273h33l-3 -271l248 97l11 -31l-248 -96l178 -228l-27 -20l-178 227l-176 -227l-27 20l176 226z" />
<glyph unicode="+" horiz-adv-x="983" d="M152 733v31h323v326h33v-326h323v-31h-323v-319h-33v319h-323z" />
<glyph unicode="," horiz-adv-x="352" d="M127 -160l41 144q-25 6 -25 32q0 31 33 31q14 0 24.5 -9t10.5 -22q0 -12 -2 -14l-49 -162h-33z" />
<glyph unicode="-" horiz-adv-x="923" d="M154 666v34h616v-34h-616z" />
<glyph unicode="." horiz-adv-x="387" d="M154 31q0 39 39 39q18 0 29 -10.5t11 -28.5q0 -14 -11.5 -25.5t-28.5 -11.5t-28 11.5t-11 25.5z" />
<glyph unicode="/" horiz-adv-x="897" d="M82 2l692 1432h41l-694 -1432h-39z" />
<glyph unicode="0" horiz-adv-x="1372" d="M162 473v483q0 148 70 261.5t189 173t267 59.5q226 0 374 -135.5t148 -358.5v-483q0 -224 -148 -358.5t-374 -134.5q-148 0 -267 59t-189 172t-70 262zM199 473q0 -209 138.5 -334t350.5 -125q137 0 247 54.5t175.5 160t65.5 244.5v483q0 139 -65.5 244.5t-175.5 160 t-247 54.5q-212 0 -350.5 -125t-138.5 -334v-483z" />
<glyph unicode="1" horiz-adv-x="847" d="M100 0v33h320v1370h-283v31h318v-1401h321v-33h-676z" />
<glyph unicode="2" horiz-adv-x="1136" d="M106 0v8l666 752q143 171 143 344q0 138 -93.5 226.5t-274.5 88.5q-182 -1 -270 -77.5t-105 -243.5h-33q18 178 114.5 266.5t293.5 89.5q199 0 301 -99t102 -253q0 -191 -155 -365l-617 -702h842v-35h-914z" />
<glyph unicode="3" horiz-adv-x="1200" d="M121 352h35q29 -163 141.5 -251.5t280.5 -88.5q206 0 329 110.5t123 313.5q0 65 -22 126.5t-60 109.5t-90 84t-110 54t-122.5 16.5t-125.5 -25.5v33l512 561h-832v32h901v-10l-514 -565q93 20 184.5 -6.5t160 -84.5t111 -144.5t42.5 -180.5q0 -218 -133.5 -338.5 t-353.5 -120.5q-186 0 -308.5 97.5t-148.5 277.5z" />
<glyph unicode="4" horiz-adv-x="1181" d="M82 352v21l827 1061h19v-1047h162v-35h-162v-352h-35v352h-811zM141 387h752v449v512h-2z" />
<glyph unicode="5" horiz-adv-x="1196" d="M131 332h35q36 -151 152 -233.5t278 -82.5q127 0 229.5 51.5t163 150t60.5 226.5q0 111 -39.5 195.5t-110.5 135.5t-162.5 76.5t-201.5 25.5q-157 0 -351 -68v625h811v-35h-774v-539q146 51 314 51q117 0 214.5 -27.5t173 -83t118 -146.5t42.5 -210q0 -207 -139.5 -334.5 t-347.5 -127.5q-174 0 -301.5 92.5t-163.5 257.5z" />
<glyph unicode="6" horiz-adv-x="1189" d="M92 440q0 158 86 273l494 723h45l-416 -617q135 78 291 78q136 0 250.5 -53t186 -158.5t71.5 -245.5q0 -105 -41 -191.5t-111 -143.5t-161 -88t-193 -31q-101 0 -191.5 31t-160 88t-110 143.5t-40.5 191.5zM127 440q0 -129 65.5 -226.5t170.5 -145.5t231 -48 q127 0 233 48t172 145.5t66 226.5t-66.5 226.5t-173 145.5t-233.5 48q-126 0 -230.5 -48t-169.5 -145.5t-65 -226.5z" />
<glyph unicode="7" horiz-adv-x="1040" d="M104 1399v35h893v-7l-710 -1427h-41l696 1399h-838z" />
<glyph unicode="8" horiz-adv-x="1228" d="M111 393q0 161 100 263t254 137q-115 31 -187.5 113t-72.5 206q0 83 35 149.5t93.5 107t130.5 62t150 21.5q62 0 121.5 -13t113 -41t93.5 -67t64 -95.5t24 -123.5q0 -123 -76 -205.5t-194 -113.5q157 -35 257.5 -138t100.5 -262q0 -100 -43 -180t-115.5 -129.5 t-161 -75.5t-184.5 -26t-184.5 26t-160.5 75.5t-115 129.5t-43 180zM145 393q0 -92 40.5 -165.5t108.5 -118.5t150 -69t170 -24t170 23.5t150 68.5t109.5 119t41.5 166q0 94 -41.5 169t-110 120t-150.5 68.5t-171 23.5q-88 0 -170 -24t-149 -70t-107.5 -120.5t-40.5 -166.5z M240 1112q0 -98 56 -168.5t138.5 -102.5t177.5 -32q96 0 180 32t141.5 102.5t57.5 168.5q0 99 -56.5 170t-140 103t-180.5 32q-69 0 -134.5 -19t-119.5 -55.5t-87 -96t-33 -134.5z" />
<glyph unicode="9" horiz-adv-x="1189" d="M90 1006q0 141 71 246t184.5 156.5t250.5 51.5q136 0 249 -51.5t184 -157t71 -245.5q0 -153 -90 -273l-492 -733h-43l418 629q-138 -80 -295 -80q-136 0 -250.5 53t-186 158.5t-71.5 245.5zM127 1006q0 -129 66.5 -226.5t172.5 -145.5t232 -48t231 48t170.5 145.5 t65.5 226.5q0 97 -38.5 178t-104 132.5t-149.5 80t-177 28.5q-128 0 -233 -48t-170.5 -144.5t-65.5 -226.5z" />
<glyph unicode=":" horiz-adv-x="387" d="M154 31q0 39 39 39q18 0 29 -10.5t11 -28.5q0 -14 -11.5 -25.5t-28.5 -11.5t-28 11.5t-11 25.5zM154 758q0 39 39 39q18 0 29 -10.5t11 -28.5q0 -14 -11.5 -25.5t-28.5 -11.5t-28 11.5t-11 25.5z" />
<glyph unicode=";" horiz-adv-x="428" d="M172 -133l35 117q-25 6 -25 32q0 31 33 31q14 0 24.5 -9t10.5 -22q0 -12 -2 -14l-43 -135h-33zM176 758q0 33 33 33q15 0 25 -8.5t10 -24.5q0 -12 -10.5 -21.5t-24.5 -9.5q-13 0 -23 9.5t-10 21.5z" />
<glyph unicode="&#x3c;" horiz-adv-x="1021" d="M121 700v31l739 338v-39l-692 -315l692 -336v-37z" />
<glyph unicode="=" horiz-adv-x="1058" d="M164 463v35h731v-35h-731zM164 819v35h731v-35h-731z" />
<glyph unicode="&#x3e;" horiz-adv-x="1021" d="M162 342v37l692 338l-692 313v39l739 -338v-31z" />
<glyph unicode="?" horiz-adv-x="987" d="M90 1124q24 162 135.5 238t282.5 76q105 0 191.5 -40t140 -120t53.5 -186q0 -76 -22 -135.5t-57 -100t-77.5 -79t-85.5 -84.5t-78 -103.5t-57 -149.5t-22 -209h-37q0 95 13.5 173.5t36.5 133.5t53 100.5t63.5 79t66.5 64t63 61.5t53 65.5t36.5 81t13.5 102.5 q0 145 -100 227t-248 82q-338 0 -383 -277h-35zM438 12q0 13 10.5 22t24.5 9q35 0 35 -31q0 -35 -35 -35q-14 0 -24.5 9.5t-10.5 25.5z" />
<glyph unicode="@" horiz-adv-x="1822" d="M129 508q21 230 138.5 410t308.5 280t423 100t402.5 -97.5t253 -276t61.5 -410.5q-5 -57 -18 -119.5t-40 -135.5t-62.5 -129t-91 -93t-120.5 -35q-55 0 -80.5 30t-25.5 78t4 107l6 68q-57 -130 -179 -209.5t-263 -79.5q-140 0 -238.5 72.5t-139 187.5t-26.5 252 q10 121 57.5 219.5t120 161.5t162.5 97t187 34q117 -2 224.5 -44.5t182.5 -117.5l-57 -641q-4 -46 -6 -86.5t17 -68t61 -27.5q56 -2 104 33t78.5 88t54 122.5t34.5 126.5t17 109q32 337 -156 542.5t-526 205.5q-220 0 -402.5 -95t-296 -267.5t-132.5 -391.5 q-13 -146 13.5 -271.5t85.5 -217t147.5 -154.5t195.5 -90t232.5 -17.5t255.5 58.5l-4 -37q-161 -58 -314.5 -59.5t-277.5 53.5t-214 154t-132 249.5t-25 331.5zM477 508q-9 -96 10.5 -181t64 -151t121 -104.5t175.5 -38.5q180 0 308 123t149 305l34 383q-132 129 -372 139 q-121 0 -225.5 -52.5t-178 -162.5t-86.5 -260z" />
<glyph unicode="A" d="M47 0v2l674 1434h16l670 -1434v-2h-37l-225 473h-836l-225 -473h-37zM324 508h806l-401 858z" />
<glyph unicode="B" horiz-adv-x="1359" d="M215 6v1434h508q79 0 143.5 -10t122.5 -35.5t97 -65.5t62 -102t23 -144q0 -132 -58 -214t-183 -117q150 -30 230.5 -122t80.5 -243q0 -79 -23 -143t-64 -108t-99 -73.5t-125 -43t-144 -13.5h-571zM250 41h536q90 0 163.5 19t131.5 59t90.5 108t32.5 160q0 160 -106 252 q-39 31 -83 50.5t-98 27.5t-92 10t-102 2h-473v-688zM250 764h473q93 0 162.5 14t129 47.5t91 98.5t31.5 159q0 96 -31.5 161t-91 98.5t-129 47t-162.5 13.5h-473v-639z" />
<glyph unicode="C" horiz-adv-x="1562" d="M119 717q0 155 52.5 291.5t146 235t228.5 154.5q130 54 281 54h11q201 -5 366.5 -105t245.5 -280h-39q-81 164 -235 256t-340 92h-13q-191 -1 -342 -89q-156 -92 -240.5 -251t-84.5 -358t84.5 -358t240 -250t353.5 -91q196 0 356.5 99.5t232.5 277.5h37 q-72 -193 -243 -302t-381 -109q-209 0 -373 94.5t-254 261.5t-90 377z" />
<glyph unicode="D" horiz-adv-x="1507" d="M215 0v1434h479q205 0 364 -96t243.5 -259t84.5 -364q0 -203 -85.5 -365.5t-244 -256t-362.5 -93.5h-479zM252 35h440q194 0 345 88.5t233 243.5t82 348q0 192 -81 347t-232 245t-345 90h-442v-1362z" />
<glyph unicode="E" horiz-adv-x="1177" d="M215 0v1434h809v-35h-774v-641h747v-33h-747v-690h778v-35h-813z" />
<glyph unicode="F" horiz-adv-x="1155" d="M215 0v1434h823v-35h-786v-666h735v-35h-735v-698h-37z" />
<glyph unicode="G" horiz-adv-x="1609" d="M119 723q0 205 87.5 371.5t248.5 263t366 96.5q465 0 625 -385h-41q-146 348 -586 348q-196 -3 -348 -93.5t-234.5 -247.5t-82.5 -353q0 -149 46.5 -278.5t131 -224.5t210.5 -149.5t277 -54.5q193 0 343 85.5t233 236.5t88 344h-629v33h664q-3 -208 -68 -346 q-84 -184 -245.5 -286.5t-385.5 -102.5q-158 0 -290.5 57.5t-221.5 157t-138.5 236t-49.5 292.5z" />
<glyph unicode="H" horiz-adv-x="1468" d="M215 0v1434h35v-662h967v662h36v-1434h-36v737h-967v-737h-35z" />
<glyph unicode="I" horiz-adv-x="733" d="M55 0v33h293v1370h-274v31h585v-31h-274v-1370h293v-33h-623z" />
<glyph unicode="J" horiz-adv-x="1331" d="M90 485v125h37v-125q0 -219 129 -344t348 -125q220 0 355 125.5t135 343.5v912h-441v37h480v-949q0 -233 -146.5 -369t-382.5 -136q-233 0 -373.5 136t-140.5 369z" />
<glyph unicode="K" horiz-adv-x="1282" d="M215 0v1434h35v-713q308 0 403 55q31 19 60 55t48 72t39.5 89t30 83.5t23.5 77.5q12 35 22.5 62.5t24 55.5t27 49t31 41t37 33.5t43.5 23.5t51 14.5t60 4.5t71 -5v-33q-29 3 -55 3q-64 0 -112 -19q-66 -27 -100.5 -83t-64.5 -157q-3 -9 -18 -56.5t-21 -64t-21.5 -57.5 t-27.5 -62.5t-30.5 -52.5t-39.5 -53.5t-45 -40.5l561 -752v-4h-41l-551 735q-82 -47 -405 -47v-688h-35z" />
<glyph unicode="L" horiz-adv-x="1054" d="M215 0v1434h37v-1401h762v-33h-799z" />
<glyph unicode="M" horiz-adv-x="1681" d="M215 0v1436h23l604 -922l604 922h20v-1436h-36v1348l-580 -889h-16l-582 889v-1348h-37z" />
<glyph unicode="N" horiz-adv-x="1515" d="M215 0v1436h21l1028 -1350v1350h36v-1436h-16l-1034 1354v-1354h-35z" />
<glyph unicode="O" horiz-adv-x="1683" d="M119 717q0 160 53.5 297t148 233.5t229 151.5t290.5 55q210 0 375.5 -93.5t257.5 -261.5t92 -382t-92 -382t-257.5 -261.5t-375.5 -93.5q-156 0 -290.5 55t-229 151.5t-148 233.5t-53.5 297zM156 717q0 -203 87 -363.5t243 -250t354 -89.5q200 0 357.5 90t244 250 t86.5 363t-87 362.5t-244 248.5t-357 89q-198 0 -354 -89t-243 -248.5t-87 -362.5z" />
<glyph unicode="P" horiz-adv-x="1323" d="M215 2v1434q57 0 167 0.5t201 0.5t167 -1q213 0 353 -127.5t140 -333.5q0 -207 -141 -334t-352 -127h-500v-512h-35zM250 551h500q195 0 325.5 116.5t130.5 307.5q0 189 -130 307.5t-326 118.5q-72 1 -155.5 1t-186.5 -0.5t-158 -0.5v-850z" />
<glyph unicode="Q" horiz-adv-x="1683" d="M119 721q0 211 92 379t257.5 263t373.5 95q209 0 374.5 -95t257 -263t91.5 -379q0 -324 -201 -528l139 -197v-6h-39l-125 178q-203 -184 -497 -184q-156 0 -290.5 55t-229.5 151.5t-149 233.5t-54 297zM156 721q0 -203 87.5 -363.5t244 -250t354.5 -89.5t355 89.5 t245 250.5t88 363q0 201 -88 361t-245 249.5t-355 89.5t-354.5 -89.5t-244 -249t-87.5 -361.5z" />
<glyph unicode="R" horiz-adv-x="1355" d="M215 2v1434h533q131 0 237 -51t170 -150t64 -229q0 -187 -122 -303t-309 -128l490 -567v-6h-45l-488 573h-493v-573h-37zM252 608h496q185 0 310.5 107.5t125.5 290.5q0 179 -125.5 287t-310.5 108h-496v-793z" />
<glyph unicode="S" horiz-adv-x="1320" d="M106 358h37q7 -74 43 -134t89.5 -98t122.5 -64t137 -37t137 -11q87 2 171 24.5t159 64.5t122.5 114t49.5 164q0 76 -30 132t-65.5 87.5t-114.5 56.5t-124.5 33.5t-148.5 24.5q-17 3 -25 4q-53 7 -87.5 11.5t-83.5 14t-81 18.5t-72.5 24.5t-66 33t-53 42.5t-42.5 55 t-25 68.5t-10 84.5q0 76 29.5 139.5t79 107t114.5 74.5t133.5 45.5t139.5 16.5h17q80 0 158 -17q87 -19 165 -59.5t130 -112.5t60 -165h-34q-8 84 -58 149t-123 101q-74 36 -154 52q-72 15 -142 15h-17q-64 -2 -127.5 -15t-124 -40.5t-107 -66.5t-74.5 -97t-28 -127 q0 -52 17 -95.5t39 -72.5t66.5 -53.5t75.5 -37.5t91 -25.5t88 -17t91 -12.5q15 -2 22 -3q211 -30 298 -60q176 -60 221 -196q17 -52 17 -117q-2 -81 -35.5 -148t-86.5 -111.5t-123 -76.5t-142.5 -46.5t-146.5 -16.5h-17q-85 0 -171 18q-94 20 -177.5 62.5t-139 119 t-63.5 176.5z" />
<glyph unicode="T" horiz-adv-x="1118" d="M39 1397v37h1040v-37h-501v-1397h-37v1397h-502z" />
<glyph unicode="U" horiz-adv-x="1445" d="M199 496v938h37v-938q0 -222 133 -350t358 -128q222 0 354.5 128t132.5 350v938h33v-938q0 -237 -141 -375.5t-379 -138.5q-239 0 -383.5 139t-144.5 375z" />
<glyph unicode="V" horiz-adv-x="1339" d="M80 1430v4h37l291 -723l264 -639h2l256 639l293 723h34v-4l-579 -1432h-14z" />
<glyph unicode="W" horiz-adv-x="1929" d="M100 1427v7h33l184 -623l213 -713l426 1309h17l428 -1307h2l207 713l182 621h37v-2l-422 -1436h-10l-432 1317l-430 -1317h-13z" />
<glyph unicode="X" horiz-adv-x="1210" d="M25 0v4l559 750l-504 676v4h43l481 -650h2l484 650h40v-2l-503 -678l559 -752v-2h-43l-537 723h-2l-536 -723h-43z" />
<glyph unicode="Y" horiz-adv-x="1273" d="M76 1432v2h41l520 -791l520 791h39v-4l-541 -828v-602h-37v602z" />
<glyph unicode="Z" horiz-adv-x="1165" d="M33 0v2l997 1395h-921v37h987v-7l-996 -1390h996v-37h-1063z" />
<glyph unicode="[" horiz-adv-x="550" d="M193 -330v1846h266v-35h-230v-1772h230v-39h-266z" />
<glyph unicode="\" horiz-adv-x="897" d="M82 1434h41l692 -1432h-39z" />
<glyph unicode="]" horiz-adv-x="550" d="M92 -291h230v1772h-230v35h266v-1846h-266v39z" />
<glyph unicode="^" horiz-adv-x="983" d="M141 881l330 542h29l342 -542h-41l-316 499l-303 -499h-41z" />
<glyph unicode="_" horiz-adv-x="1261" d="M154 -27h954v-34h-954v34z" />
<glyph unicode="`" horiz-adv-x="688" d="M236 1448v4l30 23l201 -275v-4h-39z" />
<glyph unicode="a" horiz-adv-x="1089" d="M88 279q0 99 57 174.5t142.5 112t183.5 36.5q208 0 403 -100v190q0 77 -30.5 133.5t-83.5 88t-115 46.5t-133 15q-195 0 -330 -82l-18 31q137 84 348 84q79 0 147 -17t125 -52t90 -98.5t33 -148.5v-485q0 -105 8 -132q15 -54 79 -54q20 0 46 4l7 -35q-28 -4 -51 -4 q-27 0 -47 6q-36 10 -51 45t-18 65t-3 96v9q-58 -110 -179.5 -166.5t-259.5 -56.5q-89 0 -167 32.5t-130.5 101.5t-52.5 161zM125 279q0 -84 47 -144.5t116.5 -87.5t149.5 -27q94 0 181.5 27t159.5 90.5t95 153.5v172q-190 102 -403 102q-89 0 -166 -31.5t-128.5 -98.5 t-51.5 -156z" />
<glyph unicode="b" horiz-adv-x="1179" d="M170 72v1427h37v-641q88 71 188 108q100 36 194 38h8q89 0 173 -31q88 -33 153 -95.5t105 -161t41 -220.5v-14q-1 -102 -27 -185q-28 -89 -79.5 -147.5t-121.5 -97.5q-69 -40 -151 -54q-68 -12 -140 -13q-15 0 -30 1q-88 3 -177 25.5t-173 60.5zM207 94q89 -39 184 -58 q86 -17 171 -18q10 0 18 1q94 2 176 32.5t145 85.5t99 147q34 88 34 200v12q-1 119 -40 213.5t-102.5 151.5t-147.5 85q-69 23 -143 22q-17 0 -33 -1q-90 -6 -184.5 -46.5t-176.5 -111.5v-715z" />
<glyph unicode="c" horiz-adv-x="1163" d="M109 498q0 98 30.5 182.5t82 144t119 102t143.5 62.5q72 19 146 19h7q140 -2 254.5 -70t165.5 -195h-37q-51 110 -155.5 169t-229.5 61h-6q-89 1 -173 -29q-86 -30 -156.5 -87.5t-113.5 -151t-43 -207.5q0 -113 41 -205.5t108.5 -150t151.5 -88.5t174 -31 q135 0 248.5 67.5t165.5 194.5h39q-36 -98 -108 -167t-159.5 -100.5t-185.5 -31.5q-96 1 -186 34.5t-162.5 95.5t-116.5 161.5t-44 220.5z" />
<glyph unicode="d" horiz-adv-x="1218" d="M111 500q0 120 39.5 218t105.5 160.5t154 96.5q85 33 176 33h8q95 -2 196 -40t189 -112v647h35v-1310v-13q0 -89 14 -116q21 -37 81 -37q19 0 42 4l6 -37q-26 -3 -47.5 -3.5t-38.5 3t-30 7.5t-22.5 14.5t-16.5 18.5t-11 24t-6.5 27.5t-4 33t-1.5 35.5v39v86 q-49 -134 -162.5 -212.5t-255.5 -78.5q-107 0 -193.5 42t-142 113t-85 163t-29.5 194zM145 500q0 -96 27 -181.5t78.5 -152t131.5 -105t179 -38.5q182 0 296 122.5t122 305.5v360q-83 72 -179 112t-188 45q-14 1 -27 1q-77 -1 -149 -25q-86 -28 -150 -85t-102.5 -150 t-38.5 -209z" />
<glyph unicode="e" horiz-adv-x="1144" d="M111 537q12 215 145.5 342t347.5 127q228 0 348 -129q96 -104 96 -270q0 -40 -6 -85h-895v-22q1 -216 131 -346q138 -136 365 -136q161 0 326 74l14 -35q-172 -75 -340 -75q-248 0 -396 152q-137 141 -137 366q0 18 1 37zM150 559h862q3 28 3 53q0 67 -19 125 q-26 79 -81.5 130.5t-134.5 78.5t-176 27q-194 0 -314.5 -110.5t-139.5 -303.5z" />
<glyph unicode="f" horiz-adv-x="739" d="M41 942v33h240v180q0 98 26.5 172t74 116t110.5 59q37 9 77 9q30 0 63 -5q75 -13 156 -52l-14 -31q-93 44 -176 50q-14 1 -27 1q-66 0 -119 -26q-63 -30 -100 -105.5t-37 -187.5v-180h406v-33h-406v-942h-34v942h-240z" />
<glyph unicode="g" horiz-adv-x="1177" d="M111 500q0 233 145 370.5t381 137.5q181 0 369 -93v-991q0 -117 -38 -208t-101.5 -144t-147.5 -80q-76 -25 -158 -25h-17q-92 3 -186 30.5t-178 78.5l19 33q78 -47 165 -73.5t172 -31.5h27q71 0 137 20q79 24 138.5 72t95 132.5t35.5 195.5v201q-90 -71 -190.5 -108 t-194.5 -39h-8q-90 0 -172 33q-87 34 -151.5 97.5t-103 165t-38.5 226.5zM147 500q0 -121 37 -217t99 -155t145 -88q73 -26 150 -26h24q90 5 186 44t181 110v725q-174 78 -332 78q-220 0 -355 -127t-135 -344z" />
<glyph unicode="h" horiz-adv-x="1165" d="M178 0v1499h35v-733q43 117 142.5 181.5t240.5 64.5q193 -1 298 -112.5t105 -305.5v-594h-36v594q0 180 -94.5 280t-272.5 101q-176 0 -279.5 -106.5t-103.5 -280.5v-588h-35z" />
<glyph unicode="i" horiz-adv-x="407" d="M170 1354q0 18 10 27.5t25 9.5q13 0 24 -10t11 -27q0 -16 -10 -25.5t-23 -11.5q-15 -2 -26 8t-11 29zM186 0v983h35v-983h-35z" />
<glyph unicode="j" horiz-adv-x="409" d="M-113 -508l2 37q50 -10 91 -11h3q38 0 67 10t51.5 25.5t37.5 42.5t24.5 55.5t14.5 68.5t6.5 77t1.5 86v1100h37v-1100q0 -47 -2 -85t-7 -76.5t-13 -68.5t-21.5 -58t-32 -47.5t-43.5 -34.5t-56.5 -22t-72 -7t-88.5 8zM170 1354q0 17 11 27t24 10t24 -10t11 -27t-10.5 -27 t-22.5 -10h-11q-25 7 -26 37z" />
<glyph unicode="k" horiz-adv-x="1048" d="M178 2v1495h37v-962h193q242 0 367.5 109.5t125.5 344.5h35q0 -389 -332 -471l381 -510v-6h-41l-379 508q-73 -12 -157 -12h-193v-496h-37z" />
<glyph unicode="l" horiz-adv-x="512" d="M168 367v1136h39v-1136q0 -42 1 -73.5t5 -65.5t10.5 -57.5t17.5 -47.5t27 -39.5t38 -28t50.5 -17.5t65.5 -5t82 6l4 -39q-49 -7 -90 -7t-73 6.5t-57.5 20.5t-44 31.5t-31.5 44t-21.5 54t-13.5 64t-7 72.5t-2 81z" />
<glyph unicode="m" horiz-adv-x="1810" d="M63 991q28 4 51 4q64 -1 90 -35q36 -48 36 -192q48 111 147.5 174.5t233.5 63.5q255 0 317 -271q39 125 140 198t245 73q90 0 155 -33t100.5 -92t51 -128.5t15.5 -154.5v-598h-37v598q0 371 -285 371q-172 0 -272.5 -108t-100.5 -279v-582h-35v582q0 387 -294 387 q-174 0 -277.5 -107.5t-103.5 -277.5v-584h-37v768q0 129 -25 167q-19 29 -73 29q-17 0 -37 -3z" />
<glyph unicode="n" horiz-adv-x="1181" d="M63 991q25 3 47 3q72 0 96 -32q32 -41 32 -190q46 114 148 175q99 59 222 59h8q178 0 290 -113.5t112 -292.5v-600h-37v600q0 164 -101 266.5t-264 102.5q-168 0 -273 -104.5t-105 -274.5v-590h-37v770q-1 132 -25 166q-18 26 -70 25q-18 0 -40 -3z" />
<glyph unicode="o" horiz-adv-x="1249" d="M109 496q0 122 44 221t117.5 160.5t164.5 94t190 32.5t190 -32.5t164.5 -94t117.5 -160.5t44 -221q0 -100 -29.5 -184.5t-80.5 -143.5t-118 -101t-143 -61q-72 -18 -146 -18h-8q-98 2 -187.5 35t-161.5 94t-115 159t-43 220zM143 496q0 -113 40.5 -205t108 -149 t151.5 -87.5t175 -31.5h8q70 -1 136 17q70 18 132 57.5t108.5 94.5t74 133.5t27.5 170.5q0 114 -41 206t-109 149t-152.5 87.5t-176.5 30.5q-93 0 -178 -30.5t-153.5 -87.5t-109.5 -149t-41 -206z" />
<glyph unicode="p" horiz-adv-x="1216" d="M59 999q28 5 51.5 5t40.5 -3t30.5 -11t23 -17t15.5 -24.5t9.5 -29t5.5 -35t2.5 -38t0.5 -41.5v-86q44 134 158.5 212.5t258.5 78.5q141 0 245.5 -72.5t155 -187t50.5 -252.5q0 -119 -38 -216t-103 -160t-150 -97t-180 -35h-8q-212 0 -389 147v-647h-35v1315v12v32.5 t-1 28.5t-3.5 27t-7 22t-11.5 18.5t-17.5 12.5t-24 9t-31.5 2t-41 -4zM238 182q181 -155 389 -155h8q88 1 165.5 32t137 89t94.5 148.5t35 201.5q0 96 -26.5 181t-77 151t-130 104.5t-178.5 38.5q-180 0 -296 -123t-121 -305v-363z" />
<glyph unicode="q" horiz-adv-x="1177" d="M111 496v12q0 124 39 220q40 100 113 159.5t164.5 89t199.5 29.5q192 0 381 -86v-1432h-37v645q-184 -147 -396 -147q-195 0 -328 135.5t-136 374.5zM145 496q1 -115 36.5 -206.5t96 -149.5t137.5 -88q75 -29 159 -29h6q99 0 200.5 39.5t190.5 115.5v717q-172 74 -344 74 q-100 0 -185.5 -27t-154 -81.5t-106.5 -148.5q-36 -88 -36 -204v-12z" />
<glyph unicode="r" horiz-adv-x="825" d="M55 1001q30 4 54.5 4t42.5 -4q37 -8 54 -35.5t22 -58.5t5 -84q35 91 119 144t191 53q133 0 252 -82l-19 -31q-110 76 -233 76q-120 0 -215 -85.5t-95 -205.5v-692h-36v821v2v30t-1 26.5t-3 24t-5 20t-8 18t-12.5 13.5t-18 11t-23.5 5.5t-29.5 2t-37.5 -2.5z" />
<glyph unicode="s" horiz-adv-x="1036" d="M94 256h39q6 -59 41.5 -106t90.5 -75.5t120.5 -43.5t136.5 -15q96 0 179.5 28.5t139 87.5t58.5 138q0 30 -6.5 55.5t-16.5 45t-28.5 35.5t-35 27.5t-44 21t-48 15t-55 11t-56 8.5t-59.5 7q-7 1 -11.5 1.5t-11 1t-11.5 1.5q-7 1 -22 3q-167 20 -234 46q-129 50 -133 176v9 q1 83 55 145q58 65 145 95t189 30t189 -26.5t144.5 -84.5t57.5 -137h-37q0 67 -52 117t-131 73t-171 23q-94 0 -173.5 -26t-131.5 -83q-49 -54 -49 -127v-8q1 -31 13 -56t29 -43t45.5 -32t56 -22.5t67 -16t71.5 -11t76 -7.5q171 -22 229 -39q145 -42 176 -147q9 -33 9 -73 v-8q0 -89 -60.5 -155.5t-151.5 -99t-198 -35.5q-106 0 -197 29t-156.5 93t-76.5 154z" />
<glyph unicode="t" horiz-adv-x="790" d="M43 952v29h238v307h36v-307h404v-31h-404v-561q-1 -245 107 -331q55 -44 142 -44q83 0 194 41l12 -37q-117 -42 -206 -42q-99 0 -163 52q-122 98 -122 361v561z" />
<glyph unicode="u" horiz-adv-x="1157" d="M164 399v588h35v-588q0 -170 89 -275.5t251 -105.5q173 0 279 104.5t106 278.5v586h34v-760q0 -105 11.5 -150t38.5 -57q15 -6 42 -6q21 0 48 4l4 -32q-31 -4 -54.5 -4.5t-42 4.5t-31 12.5t-22 24t-14.5 33.5t-7.5 46.5t-3.5 57.5t-1 71q-48 -126 -148 -187.5t-239 -61.5 q-177 0 -276 116.5t-99 300.5z" />
<glyph unicode="v" horiz-adv-x="1069" d="M76 983v4h41l415 -921l422 921h37v-4l-446 -983h-19z" />
<glyph unicode="w" horiz-adv-x="1490" d="M84 983v4h37l174 -491l147 -410h2l293 877h15l292 -879l150 412l176 491h39v-4l-360 -983h-15l-291 866l-290 -866h-13z" />
<glyph unicode="x" horiz-adv-x="935" d="M37 0v4l412 520l-355 461v2h45l330 -434h2l342 434h41v-4l-362 -459l397 -520v-4h-41l-377 494h-2l-389 -494h-43z" />
<glyph unicode="y" horiz-adv-x="1105" d="M68 983v2h38l455 -956l422 956h39v-2l-565 -1282q-21 -48 -44 -83.5t-56 -66t-71 -43.5q-28 -10 -64 -10q-12 0 -25 2q-51 4 -111 31l16 35q52 -23 96 -27q11 -1 22 -1q30 0 54 8q33 12 61.5 39t48.5 58.5t40 75.5l117 267z" />
<glyph unicode="z" horiz-adv-x="913" d="M53 0v8l725 942h-674v37h738v-12l-719 -938h711v-37h-781z" />
<glyph unicode="{" horiz-adv-x="544" d="M90 590v31q38 8 62.5 34.5t34 69.5t12 72.5t2.5 74.5l2 412q0 136 56.5 193t193.5 57v-37q-120 0 -167.5 -46.5t-47.5 -166.5v-412q0 -58 -4.5 -100.5t-27 -92.5t-63.5 -73q58 -33 76.5 -103t18.5 -163v-412q0 -122 47.5 -167.5t167.5 -45.5v-37q-137 0 -193.5 57 t-56.5 193l-2 412q0 29 -1 48t-3.5 50t-10 52t-19 43.5t-31.5 36.5t-46 20z" />
<glyph unicode="|" horiz-adv-x="428" d="M197 -147v1568h34v-1568h-34z" />
<glyph unicode="}" horiz-adv-x="544" d="M92 -285q120 0 167.5 45.5t47.5 167.5v412q0 42 2.5 74t11 72.5t29 71.5t51.5 48q-31 17 -51.5 48t-29 71.5t-11 72.5t-2.5 74v412q0 120 -47.5 166.5t-167.5 46.5v37q136 0 193 -57t57 -193l2 -412q0 -45 2.5 -74.5t12 -72.5t34 -69.5t62.5 -34.5v-31q-38 -8 -62.5 -34 t-34 -68.5t-12 -72.5t-2.5 -75l-2 -412q0 -136 -57 -193t-193 -57v37z" />
<glyph unicode="~" horiz-adv-x="1226" d="M158 659q38 74 94 113t118.5 42.5t128 -19t128.5 -68.5q60 -45 117.5 -68.5t114.5 -25.5t106 34.5t82 110.5l28 -12q-37 -81 -91.5 -122.5t-117 -42.5t-128.5 24.5t-134 76.5q-74 54 -151 71t-150 -14t-117 -114z" />
<glyph unicode="&#xa1;" horiz-adv-x="393" d="M164 965q0 13 10.5 22.5t24.5 9.5q17 0 24.5 -7.5t7.5 -24.5q0 -31 -32 -31q-35 0 -35 31zM178 -459v1204h37v-1204h-37z" />
<glyph unicode="&#xa2;" horiz-adv-x="1239" d="M139 498q0 94 27.5 176t75 139.5t111 102.5t134.5 65.5t146.5 26.5t146.5 -13l54 154h32l-53 -160q205 -65 277 -250l-33 -12q-66 165 -256 229l-314 -911q68 -23 140 -26.5t141.5 13.5t130 52t108 93t72.5 132l35 -10q-27 -81 -78 -143.5t-116 -100.5t-140 -56.5 t-153 -15t-152 28.5l-57 -170h-33l61 183q-137 56 -222 177.5t-85 295.5zM174 498q0 -160 79 -274.5t206 -166.5l311 906q-67 16 -137 10t-136.5 -25t-125 -60t-102.5 -95t-69.5 -130t-25.5 -165z" />
<glyph unicode="&#xa3;" horiz-adv-x="1341" d="M104 707v36h189q-18 87 -19.5 172t14 164.5t53 147t93 118t137.5 79t183 28.5q236 0 387 -145l-25 -27q-140 137 -362 137q-97 0 -174 -27.5t-127 -76.5t-83.5 -113t-46.5 -140.5t-11.5 -155.5t16.5 -161h546v-36h-538q49 -234 20 -369q-24 -124 -114 -244 q64 25 141 25.5t153 -16t149 -36t154 -36.5t142 -17q97 0 147 55.5t54 196.5h35q0 -158 -61.5 -222t-174.5 -64q-60 0 -155.5 21t-183.5 42.5t-179.5 34.5t-170.5 -5t-130 -73h-39v8q85 85 132.5 160.5t66.5 177.5q15 90 9 164.5t-32 196.5h-195z" />
<glyph unicode="&#xa4;" horiz-adv-x="1019" d="M150 371l24 -25l109 111q87 -79 218 -83t224 68l111 -108l24 24l-106 109q88 88 88 229q0 133 -74 213l106 113l-26 25l-105 -113q-89 81 -220 85.5t-226 -69.5l-109 111l-26 -27l108 -108q-90 -90 -90 -230q0 -131 76 -213zM217 696q0 69 25.5 125t67 90.5t94.5 53.5 t108 19t108 -19t94.5 -53.5t67 -90.5t25.5 -125t-25.5 -125t-67 -90.5t-94.5 -53.5t-108 -19t-108 19t-94.5 53.5t-67 90.5t-25.5 125z" />
<glyph unicode="&#xa5;" horiz-adv-x="1021" d="M78 1432v2h41l391 -791l395 791h39v-2l-403 -805h288v-33h-301v-184h301v-33h-301v-377h-36v377h-302v33h302v184h-302v33h289z" />
<glyph unicode="&#xa6;" horiz-adv-x="436" d="M201 -12v606h35v-606h-35zM201 823v598h35v-598h-35z" />
<glyph unicode="&#xa7;" horiz-adv-x="1312" d="M123 6l41 2q5 -66 41 -118t89.5 -84t121 -52.5t131 -27.5t123.5 -5q58 2 118 11.5t125 31.5t115 54t82.5 83.5t32.5 114.5q0 51 -19 92t-48 69t-75.5 50t-89 34t-102 22t-101.5 14t-99.5 9.5t-84.5 8.5q-75 9 -131.5 26.5t-107.5 49t-81 85.5t-36 128q-7 119 68.5 195 t197.5 108q-127 27 -195.5 83.5t-68.5 162.5q0 66 30 121t77.5 90.5t110.5 60.5t124 37t123 15q76 2 156 -12.5t156.5 -47t128 -93.5t57.5 -142l-39 -2q-6 73 -53.5 128t-118.5 82.5t-144 39.5t-143 10q-54 -2 -110 -12t-114 -32.5t-102.5 -54t-73 -80.5t-28.5 -108 q0 -27 5.5 -50.5t18.5 -42.5t26.5 -34.5t37.5 -28t43.5 -22t51.5 -17.5t55 -13.5t62 -11t63 -8.5t66 -8q11 -1 17 -2q56 -6 88.5 -9.5t84 -11.5t82.5 -15.5t73 -21t67 -29.5t53.5 -39t43.5 -50.5t25 -63.5t10 -79q-4 -107 -74.5 -185t-177.5 -116q122 -32 187 -96t65 -183 q-2 -87 -52.5 -153t-130 -102.5t-162 -55t-165.5 -20.5q-66 -2 -135 6.5t-142 32t-130.5 59.5t-96 93.5t-43.5 129.5zM205 606q3 -54 22.5 -96t48.5 -69t71.5 -46t85 -28.5t95.5 -14.5q29 -3 83.5 -9.5t88 -10.5t81 -11t87.5 -16q111 27 193 106t82 185q0 66 -31 115 t-65.5 75.5t-117 47t-124.5 26.5t-148 18q-4 1 -6 1q-127 15 -145 18q-60 -12 -112.5 -34.5t-97.5 -57t-70 -86t-21 -113.5z" />
<glyph unicode="&#xa8;" horiz-adv-x="872" d="M205 1405q0 39 39 39q18 0 29.5 -10.5t11.5 -28.5q0 -14 -12 -25.5t-29 -11.5t-28 11.5t-11 25.5zM592 1405q0 39 39 39q18 0 29.5 -10.5t11.5 -28.5q0 -14 -12 -25.5t-29 -11.5t-28 11.5t-11 25.5z" />
<glyph unicode="&#xa9;" horiz-adv-x="1632" d="M133 711q0 166 58.5 301t154.5 217.5t219 127.5t251 45t251 -45t219 -127.5t154.5 -217.5t58.5 -301t-58.5 -301t-154.5 -217.5t-219 -127.5t-251 -45t-251 45t-219 127.5t-154.5 217.5t-58.5 301zM170 711q0 -158 55.5 -286t146.5 -206.5t207 -121t237 -42.5t237 42.5 t207 121t146.5 206.5t55.5 286q0 127 -36 235.5t-98 184.5t-145 130t-176 79.5t-191 25.5t-191 -25.5t-176 -79.5t-145 -130t-98 -184.5t-36 -235.5zM481 709q0 83 30.5 151t81 109t113 65.5t129 22.5t126 -21.5t107 -66t69.5 -111.5l-35 -12q-22 67 -74.5 110t-117 57 t-134.5 1.5t-127 -49t-94 -103.5t-37 -153q0 -74 28 -135t73.5 -97.5t102.5 -58t117.5 -18.5t114.5 22t97 62.5t63 103.5l35 -10q-21 -60 -61.5 -105t-91 -70.5t-109 -34t-115.5 -0.5t-110 35t-93 68t-64 102.5t-24 135.5z" />
<glyph unicode="&#xaa;" horiz-adv-x="1021" d="M168 918q0 75 42.5 128.5t105 77t135.5 23.5q168 -11 278 -68v101q0 227 -262 227q-128 0 -223 -59l-19 30q106 64 242 64q138 0 219 -64t82 -198v-408q0 -61 90 -47l6 -33q-69 -10 -102 12.5t-33 69.5v60q-45 -69 -128 -104.5t-179 -35.5q-108 0 -181 59t-73 165z M201 481v35h633v-35h-633zM205 918q0 -92 61.5 -140.5t155.5 -48.5q66 0 126.5 17.5t110 58t70.5 98.5v139q-125 67 -278 70q-99 0 -172.5 -49.5t-73.5 -144.5z" />
<glyph unicode="&#xab;" horiz-adv-x="866" d="M135 709l246 415l22 -12l-227 -403l227 -400l-22 -14zM446 709l246 415l23 -12l-228 -403l228 -400l-23 -14z" />
<glyph unicode="&#xac;" horiz-adv-x="1126" d="M199 696v35h764v-424h-35v389h-729z" />
<glyph unicode="&#xad;" horiz-adv-x="923" d="M154 666v34h616v-34h-616z" />
<glyph unicode="&#xae;" horiz-adv-x="1628" d="M133 717q0 166 58.5 301t154.5 217.5t218 127.5t250 45t250 -45t218 -127.5t154.5 -217.5t58.5 -301t-58.5 -301t-154.5 -217.5t-218 -127.5t-250 -45t-250 45t-218 127.5t-154.5 217.5t-58.5 301zM168 717q0 -158 55.5 -286t146.5 -206.5t207 -121t237 -42.5t237 42.5 t207 121t146.5 206.5t55.5 286q0 127 -36 235.5t-98 184.5t-145 130t-176 79.5t-191 25.5t-191 -25.5t-176 -79.5t-145 -130t-98 -184.5t-36 -235.5zM614 375v676h254q97 0 161.5 -57.5t64.5 -153.5q0 -85 -52.5 -141.5t-138.5 -67.5l213 -254v-2h-43l-213 254h-209v-254 h-37zM651 666h217q81 0 135 46t54 128q0 78 -54.5 126t-134.5 48h-217v-348z" />
<glyph unicode="&#xaf;" horiz-adv-x="1021" d="M207 1391v34h561v-34h-561z" />
<glyph unicode="&#xb0;" horiz-adv-x="858" d="M127 1155q0 69 26 125t68.5 90t96.5 53t111 19t111 -18.5t96.5 -53t68.5 -90.5t26 -125q0 -70 -26 -126.5t-68.5 -91t-96.5 -53t-111 -18.5t-111 19t-96.5 53.5t-68.5 91t-26 125.5zM162 1155q0 -62 23 -112t60.5 -80.5t85.5 -47t98 -16.5t98 16.5t85.5 47.5t60.5 81 t23 111t-23 110.5t-60.5 80t-85.5 47t-98 16.5t-98 -16.5t-85.5 -47t-60.5 -80t-23 -110.5z" />
<glyph unicode="&#xb1;" horiz-adv-x="1054" d="M164 137v35h727v-35h-727zM190 733v31h324v326h33v-326h323v-31h-323v-319h-33v319h-324z" />
<glyph unicode="&#xb2;" horiz-adv-x="845" d="M152 819v8l378 404q48 48 66 108.5t5 112t-63.5 86.5t-129.5 35q-99 0 -147.5 -39.5t-59.5 -126.5h-31q22 197 238 197q84 0 142 -37t77.5 -93t2.5 -126t-73 -131l-344 -369h471v-29h-532z" />
<glyph unicode="&#xb3;" horiz-adv-x="784" d="M115 1014h32q17 -85 78.5 -129.5t155.5 -44.5q113 0 181.5 57t68.5 160q0 68 -47 122t-114 70.5t-140 -4.5v19l282 297h-462v30h522v-8l-287 -301q108 17 194.5 -53t86.5 -172q0 -117 -77.5 -183.5t-207.5 -66.5q-108 0 -180.5 54.5t-85.5 152.5z" />
<glyph unicode="&#xb4;" horiz-adv-x="620" d="M182 1141v4l201 274l35 -14v-4l-197 -260h-39z" />
<glyph unicode="&#xb5;" horiz-adv-x="1140" d="M184 -512v1501h35v-586q0 -184 94 -287t279 -104q170 0 273.5 108t103.5 279v590h37v-989h-37v221q-42 -116 -139.5 -180t-237.5 -64q-139 0 -233.5 57t-139.5 163v-709h-35z" />
<glyph unicode="&#xb6;" horiz-adv-x="1394" d="M79 907q-3 99 26.5 193.5t87 168t155 118.5t221.5 45h619v-1803h-35v1770h-551v-1770h-39v736q-111 4 -203.5 52.5t-151.5 124t-92.5 171t-36.5 194.5z" />
<glyph unicode="&#xb7;" horiz-adv-x="387" d="M154 731q0 39 39 39q18 0 29 -10.5t11 -28.5q0 -14 -11.5 -25.5t-28.5 -11.5t-28 11.5t-11 25.5z" />
<glyph unicode="&#xb8;" horiz-adv-x="802" d="M227 -332q41 -44 111.5 -62t136.5 5t86 88q15 47 2 79.5t-45 51.5t-71.5 25t-77.5 0l41 161h30l-32 -131q96 5 155 -49.5t31 -144.5q-23 -70 -91.5 -101t-145.5 -18.5t-130 59.5v37z" />
<glyph unicode="&#xb9;" horiz-adv-x="663" d="M133 819v31h180v713h-159v30h194v-743h182v-31h-397z" />
<glyph unicode="&#xba;" horiz-adv-x="1116" d="M164 1090q0 93 33.5 168t88.5 121.5t125 71.5t143 25t143 -25t125 -71.5t88.5 -121.5t33.5 -168t-33.5 -168t-88.5 -121.5t-125 -71.5t-143 -25t-143 25t-125 71.5t-88.5 121.5t-33.5 168zM197 1090q0 -85 30.5 -153.5t80.5 -110.5t114 -65t131 -23t131 23t114 65 t80.5 110.5t30.5 153.5t-30.5 153.5t-80.5 110.5t-114 65t-131 23t-131 -23t-114 -65t-80.5 -110.5t-30.5 -153.5zM199 479v35h721v-35h-721z" />
<glyph unicode="&#xbb;" horiz-adv-x="866" d="M152 309l227 400l-227 403l22 12l246 -415l-246 -414zM463 309l227 400l-227 403l22 12l246 -415l-246 -414z" />
<glyph unicode="&#xbc;" horiz-adv-x="1673" d="M113 676v31h180v712h-160v31h195v-743h182v-31h-397zM487 2l693 1432h41l-695 -1432h-39zM997 188v19l469 571h27v-557h92v-33h-92v-184h-33v184h-463zM1049 221h411v232l2 262h-2z" />
<glyph unicode="&#xbd;" horiz-adv-x="1738" d="M113 676v31h180v712h-160v31h195v-743h182v-31h-397zM483 2l693 1432h41l-695 -1432h-39zM1110 0v8l385 406q36 39 56.5 85.5t19.5 91t-21 81.5t-68.5 59.5t-119.5 22.5q-99 0 -145.5 -39.5t-57.5 -126.5h-31q11 100 67 148t171 48q87 0 147 -37t80 -92.5t2.5 -125.5 t-75.5 -132q-139 -146 -340 -364h462v-33h-532z" />
<glyph unicode="&#xbe;" horiz-adv-x="1730" d="M109 870h32q17 -85 78.5 -130.5t155.5 -45.5q113 0 181.5 57.5t68.5 161.5q0 106 -94 167.5t-207 21.5v18l282 299h-463v29h523v-8l-287 -301q112 17 196 -53t84 -173q0 -117 -76.5 -183t-207.5 -66q-108 0 -180.5 54t-85.5 152zM545 2l692 1432h41l-694 -1432h-39z M1055 188v19l469 571h26v-557h92v-33h-92v-184h-32v184h-463zM1106 221h412v232l2 262h-2z" />
<glyph unicode="&#xbf;" horiz-adv-x="960" d="M82 -117q0 76 22 135t57 99.5t77.5 78.5t85.5 84.5t78 103.5t57 149t22 210h37q0 -120 -22 -214.5t-57 -153.5t-77.5 -106.5t-85.5 -85.5t-78 -77.5t-57 -95.5t-22 -127q0 -145 100 -227t248 -82q339 0 383 276h35q-24 -162 -135.5 -237.5t-282.5 -75.5q-105 0 -191.5 40 t-140 120t-53.5 186zM467 963q0 34 35 34q15 0 25 -9t10 -25q0 -13 -10.5 -22t-24.5 -9q-35 0 -35 31z" />
<glyph unicode="&#xc0;" d="M47 0v2l674 1434h16l670 -1434v-2h-37l-225 473h-836l-225 -473h-37zM324 508h806l-401 858zM526 1837v4l31 23l201 -275v-4h-39z" />
<glyph unicode="&#xc1;" d="M47 0v2l674 1434h16l670 -1434v-2h-37l-225 473h-836l-225 -473h-37zM324 508h806l-401 858zM690 1573v4l201 274l35 -14v-4l-197 -260h-39z" />
<glyph unicode="&#xc2;" d="M47 0v2l674 1434h16l670 -1434v-2h-37l-225 473h-836l-225 -473h-37zM324 508h806l-401 858zM438 1554v7l277 237h37l274 -242v-2h-47l-244 215l-248 -215h-49z" />
<glyph unicode="&#xc3;" d="M47 0v2l674 1434h16l670 -1434v-2h-37l-225 473h-836l-225 -473h-37zM324 508h806l-401 858zM467 1608q117 168 278 51q73 -53 127.5 -42.5t106.5 83.5l22 -17q-112 -171 -274 -53q-72 53 -129.5 43.5t-108.5 -82.5z" />
<glyph unicode="&#xc4;" d="M47 0v2l674 1434h16l670 -1434v-2h-37l-225 473h-836l-225 -473h-37zM324 508h806l-401 858zM494 1604q0 20 9 29t29 9q18 0 29.5 -10t11.5 -28q0 -14 -12 -25.5t-29 -11.5t-27.5 11.5t-10.5 25.5zM881 1604q0 38 39 38q18 0 29.5 -10t11.5 -28q0 -14 -12 -25.5 t-29 -11.5t-28 11.5t-11 25.5z" />
<glyph unicode="&#xc5;" d="M47 0v2l672 1430q-83 0 -144 53t-61 141q0 63 31.5 109.5t78.5 67t102 20.5t102 -20.5t78.5 -67t31.5 -109.5q0 -89 -59 -139t-140 -55l668 -1430v-2h-37l-225 473h-836l-225 -473h-37zM324 508h806l-401 858zM549 1626q0 -44 19.5 -79t50.5 -53t68.5 -26t75 0t68.5 26 t50.5 53t19.5 79t-19.5 79t-50.5 53t-68.5 26t-75 0t-68.5 -26t-50.5 -53t-19.5 -79z" />
<glyph unicode="&#xc6;" horiz-adv-x="1697" d="M47 0v4l791 1426h716v-35h-661v-635h635v-37h-635v-688h666v-35h-703v475h-508l-262 -475h-39zM367 508h489v876z" />
<glyph unicode="&#xc7;" horiz-adv-x="1562" d="M119 717q0 155 52.5 291.5t146 235t228.5 154.5t292 54q201 -5 366.5 -105t245.5 -280h-39q-81 164 -235 256t-340 92q-199 3 -355 -88.5t-240.5 -251t-84.5 -358.5t84.5 -358t240 -250t353.5 -91q196 0 356.5 99.5t232.5 277.5h37q-71 -187 -234.5 -296.5t-367.5 -114.5 l-31 -125q61 3 110 -17.5t72.5 -67.5t4.5 -110q-23 -70 -91.5 -101t-145.5 -18t-130 60v37q30 -33 80.5 -51.5t101 -18.5t94 25.5t58.5 74.5q15 47 2 79.5t-45.5 51.5t-72 25t-77.5 0l39 156q-206 0 -368.5 95.5t-251 262.5t-88.5 375z" />
<glyph unicode="&#xc8;" horiz-adv-x="1177" d="M215 0v1434h809v-35h-774v-641h747v-33h-747v-690h778v-35h-813zM455 1833v4l30 23l201 -275v-4h-39z" />
<glyph unicode="&#xc9;" horiz-adv-x="1177" d="M215 0v1434h809v-35h-774v-641h747v-33h-747v-690h778v-35h-813zM582 1577v4l200 274l35 -14v-4l-196 -260h-39z" />
<glyph unicode="&#xca;" horiz-adv-x="1177" d="M215 0v1434h809v-35h-774v-641h747v-33h-747v-690h778v-35h-813zM350 1589v6l264 234h35l262 -238v-2h-45l-233 211l-236 -211h-47z" />
<glyph unicode="&#xcb;" horiz-adv-x="1177" d="M215 0v1434h809v-35h-774v-641h747v-33h-747v-690h778v-35h-813zM385 1645q0 38 39 38q18 0 29.5 -10t11.5 -28q0 -14 -12 -25.5t-29 -11.5t-28 11.5t-11 25.5zM772 1645q0 38 39 38q18 0 29.5 -10t11.5 -28q0 -14 -12 -25.5t-29 -11.5t-28 11.5t-11 25.5z" />
<glyph unicode="&#xcc;" horiz-adv-x="733" d="M55 0v33h293v1370h-274v31h585v-31h-274v-1370h293v-33h-623zM166 1823v4l31 22l200 -274v-4h-39z" />
<glyph unicode="&#xcd;" horiz-adv-x="733" d="M55 0v33h293v1370h-274v31h585v-31h-274v-1370h293v-33h-623zM334 1575v4l201 274l34 -14v-4l-196 -260h-39z" />
<glyph unicode="&#xce;" horiz-adv-x="733" d="M55 0v33h293v1370h-274v31h585v-31h-274v-1370h293v-33h-623zM90 1561v6l264 231h35l262 -235v-2h-45l-231 208l-238 -208h-47z" />
<glyph unicode="&#xcf;" horiz-adv-x="733" d="M55 0v33h293v1370h-274v31h585v-31h-274v-1370h293v-33h-623zM135 1653q0 39 39 39q18 0 29.5 -10.5t11.5 -28.5q0 -14 -12 -25.5t-29 -11.5t-28 11.5t-11 25.5zM522 1653q0 39 39 39q18 0 29.5 -10.5t11.5 -28.5q0 -14 -12 -25.5t-29 -11.5t-28 11.5t-11 25.5z" />
<glyph unicode="&#xd0;" horiz-adv-x="1507" d="M41 688v33h174v713h479q205 0 364 -96t243.5 -259t84.5 -364q0 -203 -85.5 -365.5t-244 -256t-362.5 -93.5h-479v688h-174zM252 35h440q194 0 345 88.5t233 243.5t82 348q0 192 -81 347t-232 245t-345 90h-442v-676h287v-33h-287v-653z" />
<glyph unicode="&#xd1;" horiz-adv-x="1515" d="M215 0v1436h21l1028 -1350v1350h36v-1436h-16l-1034 1354v-1354h-35zM487 1649q117 169 279 51q73 -53 127 -42.5t106 83.5l23 -17q-112 -171 -274 -53q-72 53 -129.5 43.5t-108.5 -82.5z" />
<glyph unicode="&#xd2;" horiz-adv-x="1683" d="M119 717q0 160 53.5 297t148 233.5t229 151.5t290.5 55q210 0 375.5 -93.5t257.5 -261.5t92 -382t-92 -382t-257.5 -261.5t-375.5 -93.5q-156 0 -290.5 55t-229 151.5t-148 233.5t-53.5 297zM156 717q0 -203 87 -363.5t243 -250t354 -89.5q200 0 357.5 90t244 250 t86.5 363t-87 362.5t-244 248.5t-357 89q-198 0 -354 -89t-243 -248.5t-87 -362.5zM641 1870v4l31 22l200 -274v-4h-38z" />
<glyph unicode="&#xd3;" horiz-adv-x="1683" d="M119 717q0 160 53.5 297t148 233.5t229 151.5t290.5 55q210 0 375.5 -93.5t257.5 -261.5t92 -382t-92 -382t-257.5 -261.5t-375.5 -93.5q-156 0 -290.5 55t-229 151.5t-148 233.5t-53.5 297zM156 717q0 -203 87 -363.5t243 -250t354 -89.5q200 0 357.5 90t244 250 t86.5 363t-87 362.5t-244 248.5t-357 89q-198 0 -354 -89t-243 -248.5t-87 -362.5zM805 1608v4l201 274l34 -14v-4l-196 -260h-39z" />
<glyph unicode="&#xd4;" horiz-adv-x="1683" d="M119 717q0 160 53.5 297t148 233.5t229 151.5t290.5 55q210 0 375.5 -93.5t257.5 -261.5t92 -382t-92 -382t-257.5 -261.5t-375.5 -93.5q-156 0 -290.5 55t-229 151.5t-148 233.5t-53.5 297zM156 717q0 -203 87 -363.5t243 -250t354 -89.5q200 0 357.5 90t244 250 t86.5 363t-87 362.5t-244 248.5t-357 89q-198 0 -354 -89t-243 -248.5t-87 -362.5zM547 1612v6l276 237h37l275 -241v-2h-48l-243 215l-248 -215h-49z" />
<glyph unicode="&#xd5;" horiz-adv-x="1683" d="M119 717q0 160 53.5 297t148 233.5t229 151.5t290.5 55q210 0 375.5 -93.5t257.5 -261.5t92 -382t-92 -382t-257.5 -261.5t-375.5 -93.5q-156 0 -290.5 55t-229 151.5t-148 233.5t-53.5 297zM156 717q0 -203 87 -363.5t243 -250t354 -89.5q200 0 357.5 90t244 250 t86.5 363t-87 362.5t-244 248.5t-357 89q-198 0 -354 -89t-243 -248.5t-87 -362.5zM571 1669q117 169 279 51q73 -53 127 -42.5t106 83.5l23 -16q-112 -171 -275 -53q-72 53 -129 43.5t-108 -82.5z" />
<glyph unicode="&#xd6;" horiz-adv-x="1683" d="M119 717q0 160 53.5 297t148 233.5t229 151.5t290.5 55q210 0 375.5 -93.5t257.5 -261.5t92 -382t-92 -382t-257.5 -261.5t-375.5 -93.5q-156 0 -290.5 55t-229 151.5t-148 233.5t-53.5 297zM156 717q0 -203 87 -363.5t243 -250t354 -89.5q200 0 357.5 90t244 250 t86.5 363t-87 362.5t-244 248.5t-357 89q-198 0 -354 -89t-243 -248.5t-87 -362.5zM625 1710q0 39 39 39q18 0 29.5 -10.5t11.5 -28.5q0 -14 -12 -25.5t-29 -11.5t-28 11.5t-11 25.5zM1012 1710q0 39 39 39q18 0 29.5 -10.5t11.5 -28.5q0 -14 -12 -25.5t-29 -11.5t-28 11.5 t-11 25.5z" />
<glyph unicode="&#xd7;" horiz-adv-x="858" d="M162 956l20 21l246 -244l246 246l22 -23l-245 -247l239 -240l-20 -23l-242 242l-242 -242l-22 23l242 242z" />
<glyph unicode="&#xd8;" horiz-adv-x="1679" d="M121 713q0 160 53.5 297t148 233.5t228.5 151.5t289 55q198 0 366 -92l90 160h41v-2l-102 -177q151 -93 238.5 -250.5t87.5 -375.5q0 -211 -91.5 -378t-256.5 -261t-373 -94q-194 0 -357 88l-94 -158h-43v2l107 174q-153 93 -242.5 252t-89.5 375zM156 713 q0 -207 84 -357.5t229 -240.5l717 1212q-159 84 -346 84q-198 0 -354 -88.5t-243 -247.5t-87 -362zM502 98q159 -84 338 -84q198 0 354.5 90.5t243 250t86.5 358.5q0 206 -83 358t-224 238z" />
<glyph unicode="&#xd9;" horiz-adv-x="1445" d="M199 496v938h37v-938q0 -222 133 -350t358 -128q222 0 354.5 128t132.5 350v938h33v-938q0 -237 -141 -375.5t-379 -138.5q-239 0 -383.5 139t-144.5 375zM559 1839v4l31 23l201 -275v-4h-39z" />
<glyph unicode="&#xda;" horiz-adv-x="1445" d="M199 496v938h37v-938q0 -222 133 -350t358 -128q222 0 354.5 128t132.5 350v938h33v-938q0 -237 -141 -375.5t-379 -138.5q-239 0 -383.5 139t-144.5 375zM664 1593v4l200 275l35 -14v-5l-197 -260h-38z" />
<glyph unicode="&#xdb;" horiz-adv-x="1445" d="M199 496v938h37v-938q0 -222 133 -350t358 -128q222 0 354.5 128t132.5 350v938h33v-938q0 -237 -141 -375.5t-379 -138.5q-239 0 -383.5 139t-144.5 375zM428 1614v6l277 238h36l275 -242v-2h-47l-244 215l-248 -215h-49z" />
<glyph unicode="&#xdc;" horiz-adv-x="1445" d="M199 496v938h37v-938q0 -222 133 -350t358 -128q222 0 354.5 128t132.5 350v938h33v-938q0 -237 -141 -375.5t-379 -138.5q-239 0 -383.5 139t-144.5 375zM489 1714q0 39 39 39q18 0 29.5 -10.5t11.5 -28.5q0 -14 -12 -25.5t-29 -11.5t-28 11.5t-11 25.5zM877 1714 q0 39 38 39q18 0 29.5 -10.5t11.5 -28.5q0 -14 -12 -25.5t-29 -11.5t-27.5 11.5t-10.5 25.5z" />
<glyph unicode="&#xdd;" horiz-adv-x="1273" d="M76 1432v2h41l520 -791l520 791h39v-4l-541 -828v-602h-37v602zM580 1608v4l200 274l35 -14v-4l-197 -260h-38z" />
<glyph unicode="&#xde;" horiz-adv-x="1329" d="M215 0v1434h35v-248h500q213 0 353 -127.5t140 -333.5q0 -207 -141 -334t-352 -127h-500v-264h-35zM250 297h500q195 0 325.5 118.5t130.5 309.5q0 190 -130 309t-326 119h-500v-856z" />
<glyph unicode="&#xdf;" horiz-adv-x="1140" d="M174 2v1036q0 89 19 159t51 115.5t78.5 76.5t96 46t110.5 18.5t114.5 -0.5t115 -15.5t105.5 -22.5t92 -26v-35l-421 -525q73 15 145.5 7t138.5 -45t117 -89.5t81 -126t30 -153.5q0 -133 -43 -230.5t-120 -148.5t-183.5 -66.5t-233.5 15.5v37q120 -32 220 -20t172 58.5 t112.5 137t40.5 217.5q0 74 -30 144t-81 121t-117.5 85.5t-139 37.5t-146.5 -24v50l417 524q-71 23 -139 38t-139 20.5t-132.5 -2.5t-116 -34t-93.5 -69.5t-61.5 -113t-22.5 -161.5v-1036h-37z" />
<glyph unicode="&#xe0;" horiz-adv-x="1089" d="M88 279q0 99 57 174.5t142.5 112t183.5 36.5q208 0 403 -100v190q0 77 -30.5 133.5t-83.5 88t-115 46.5t-133 15q-195 0 -330 -82l-18 31q137 84 348 84q79 0 147 -17t125 -52t90 -98.5t33 -148.5l-2 -485v-15v-35t1 -30.5t2.5 -28t5 -23t8.5 -20.5t12 -15t17 -11.5 t23 -5.5t29.5 -2t36.5 4l7 -35q-62 -8 -98 1.5t-51 45t-18 65.5t-3 96v9q-58 -110 -179.5 -166.5t-259.5 -56.5q-89 0 -167 32.5t-130.5 101.5t-52.5 161zM125 279q0 -84 47 -144.5t116.5 -87.5t149.5 -27q94 0 181.5 27t159.5 90.5t95 153.5v172q-190 102 -403 102 q-89 0 -166 -31.5t-128.5 -98.5t-51.5 -156zM371 1458v2l28 23l185 -254v-2h-35z" />
<glyph unicode="&#xe1;" horiz-adv-x="1089" d="M88 279q0 99 57 174.5t142.5 112t183.5 36.5q208 0 403 -100v190q0 77 -30.5 133.5t-83.5 88t-115 46.5t-133 15q-195 0 -330 -82l-18 31q137 84 348 84q79 0 147 -17t125 -52t90 -98.5t33 -148.5l-2 -485v-15v-35t1 -30.5t2.5 -28t5 -23t8.5 -20.5t12 -15t17 -11.5 t23 -5.5t29.5 -2t36.5 4l7 -35q-62 -8 -98 1.5t-51 45t-18 65.5t-3 96v9q-58 -110 -179.5 -166.5t-259.5 -56.5q-89 0 -167 32.5t-130.5 101.5t-52.5 161zM125 279q0 -84 47 -144.5t116.5 -87.5t149.5 -27q94 0 181.5 27t159.5 90.5t95 153.5v172q-190 102 -403 102 q-89 0 -166 -31.5t-128.5 -98.5t-51.5 -156zM479 1225v4l189 258l32 -14v-5l-184 -243h-37z" />
<glyph unicode="&#xe2;" horiz-adv-x="1089" d="M88 279q0 99 57 174.5t142.5 112t183.5 36.5q208 0 403 -100v190q0 77 -30.5 133.5t-83.5 88t-115 46.5t-133 15q-195 0 -330 -82l-18 31q137 84 348 84q79 0 147 -17t125 -52t90 -98.5t33 -148.5l-2 -485v-15v-35t1 -30.5t2.5 -28t5 -23t8.5 -20.5t12 -15t17 -11.5 t23 -5.5t29.5 -2t36.5 4l7 -35q-62 -8 -98 1.5t-51 45t-18 65.5t-3 96v9q-58 -110 -179.5 -166.5t-259.5 -56.5q-89 0 -167 32.5t-130.5 101.5t-52.5 161zM125 279q0 -84 47 -144.5t116.5 -87.5t149.5 -27q94 0 181.5 27t159.5 90.5t95 153.5v172q-190 102 -403 102 q-89 0 -166 -31.5t-128.5 -98.5t-51.5 -156zM276 1245v6l244 228h33l242 -232v-2h-41l-215 207l-220 -207h-43z" />
<glyph unicode="&#xe3;" horiz-adv-x="1089" d="M88 279q0 99 57 174.5t142.5 112t183.5 36.5q208 0 403 -100v190q0 77 -30.5 133.5t-83.5 88t-115 46.5t-133 15q-195 0 -330 -82l-18 31q137 84 348 84q79 0 147 -17t125 -52t90 -98.5t33 -148.5l-2 -485v-15v-35t1 -30.5t2.5 -28t5 -23t8.5 -20.5t12 -15t17 -11.5 t23 -5.5t29.5 -2t36.5 4l7 -35q-62 -8 -98 1.5t-51 45t-18 65.5t-3 96v9q-58 -110 -179.5 -166.5t-259.5 -56.5q-89 0 -167 32.5t-130.5 101.5t-52.5 161zM125 279q0 -84 47 -144.5t116.5 -87.5t149.5 -27q94 0 181.5 27t159.5 90.5t95 153.5v172q-190 102 -403 102 q-89 0 -166 -31.5t-128.5 -98.5t-51.5 -156zM289 1358q109 156 260 47q66 -49 117.5 -39t99.5 78l20 -17q-104 -159 -256 -49q-127 96 -221 -35z" />
<glyph unicode="&#xe4;" horiz-adv-x="1089" d="M88 279q0 99 57 174.5t142.5 112t183.5 36.5q208 0 403 -100v190q0 77 -30.5 133.5t-83.5 88t-115 46.5t-133 15q-195 0 -330 -82l-18 31q137 84 348 84q79 0 147 -17t125 -52t90 -98.5t33 -148.5l-2 -485v-15v-35t1 -30.5t2.5 -28t5 -23t8.5 -20.5t12 -15t17 -11.5 t23 -5.5t29.5 -2t36.5 4l7 -35q-62 -8 -98 1.5t-51 45t-18 65.5t-3 96v9q-58 -110 -179.5 -166.5t-259.5 -56.5q-89 0 -167 32.5t-130.5 101.5t-52.5 161zM125 279q0 -84 47 -144.5t116.5 -87.5t149.5 -27q94 0 181.5 27t159.5 90.5t95 153.5v172q-190 102 -403 102 q-89 0 -166 -31.5t-128.5 -98.5t-51.5 -156zM319 1362q0 39 39 39q18 0 29.5 -10.5t11.5 -28.5q0 -14 -12 -25.5t-29 -11.5t-28 11.5t-11 25.5zM707 1362q0 39 38 39q18 0 29.5 -10.5t11.5 -28.5q0 -14 -12 -25.5t-29 -11.5t-27.5 11.5t-10.5 25.5z" />
<glyph unicode="&#xe5;" horiz-adv-x="1089" d="M88 279q0 99 57 174.5t142.5 112t183.5 36.5q208 0 403 -100v190q0 77 -30.5 133.5t-83.5 88t-115 46.5t-133 15q-195 0 -330 -82l-18 31q137 84 348 84q79 0 147 -17t125 -52t90 -98.5t33 -148.5l-2 -485v-15v-35t1 -30.5t2.5 -28t5 -23t8.5 -20.5t12 -15t17 -11.5 t23 -5.5t29.5 -2t36.5 4l7 -35q-62 -8 -98 1.5t-51 45t-18 65.5t-3 96v9q-58 -110 -179.5 -166.5t-259.5 -56.5q-89 0 -167 32.5t-130.5 101.5t-52.5 161zM125 279q0 -84 47 -144.5t116.5 -87.5t149.5 -27q94 0 181.5 27t159.5 90.5t95 153.5v172q-190 102 -403 102 q-89 0 -166 -31.5t-128.5 -98.5t-51.5 -156zM356 1339q0 53 29 92t72 56.5t93.5 17.5t93.5 -17.5t72 -56.5t29 -92q0 -52 -29 -90.5t-72 -56t-93.5 -17.5t-93.5 17.5t-72 56t-29 90.5zM389 1339q0 -51 33.5 -86t81 -43.5t95 0t81 43.5t33.5 86t-33.5 86.5t-81 43.5t-95 -0.5 t-81 -43.5t-33.5 -86z" />
<glyph unicode="&#xe6;" horiz-adv-x="1777" d="M90 272q0 149 106.5 236.5t256.5 87.5q193 0 385 -100v190q0 75 -30.5 131.5t-83 88.5t-114 47.5t-131.5 15.5q-165 0 -299 -84l-16 30q142 89 315 89q77 0 143.5 -17t121 -52.5t88.5 -95.5t40 -139q48 146 151 225t259 79q146 0 242.5 -65t132.5 -173.5t16 -247.5h-799 q-11 -230 100.5 -363t325.5 -137q126 -8 299 72l15 -35q-180 -75 -314 -75q-301 9 -415 256q-75 -122 -196.5 -188t-268.5 -66q-138 0 -234 77t-96 213zM125 272q0 -124 84.5 -188.5t212.5 -69.5q137 0 261.5 71.5t184.5 190.5q-24 83 -30 181q-178 102 -385 102 q-87 0 -161 -31.5t-122 -98.5t-45 -157zM877 555h765q17 188 -79 302t-283 114q-182 0 -283.5 -112.5t-119.5 -303.5z" />
<glyph unicode="&#xe7;" horiz-adv-x="1165" d="M109 500q0 104 33.5 192t90 148.5t131 101.5t155 56.5t163 8t154.5 -38t131 -88t90 -135.5h-37q-31 69 -87 119t-123 76.5t-143 32t-150 -9.5t-142 -53.5t-119.5 -94.5t-82 -137.5t-30.5 -177.5q0 -98 31 -181t83.5 -139.5t121.5 -94.5t144 -51.5t152.5 -5t145 39t124 87 t87.5 132.5h39q-55 -144 -177 -221.5t-269 -77.5l-27 -109q96 5 155 -49.5t31 -144.5q-23 -70 -91.5 -101t-145 -18.5t-129.5 59.5v37q41 -44 111.5 -62t136.5 5t86 88q15 44 1.5 79t-45 51.5t-71.5 24.5t-78 0l35 142q-93 4 -179 38.5t-155 96.5t-110 159t-41 216z" />
<glyph unicode="&#xe8;" horiz-adv-x="1144" d="M111 537q12 215 145.5 342t347.5 127q228 0 347.5 -129t90.5 -355h-895q-7 -231 130.5 -367.5t365.5 -136.5q161 0 326 74l14 -35q-172 -75 -340 -75q-248 0 -396 152t-136 403zM150 559h862q10 99 -16 178t-81.5 130.5t-134.5 78.5t-176 27q-194 0 -314.5 -110.5 t-139.5 -303.5zM434 1468v5l29 20l188 -258v-4h-37z" />
<glyph unicode="&#xe9;" horiz-adv-x="1144" d="M111 537q12 215 145.5 342t347.5 127q228 0 347.5 -129t90.5 -355h-895q-7 -231 130.5 -367.5t365.5 -136.5q161 0 326 74l14 -35q-172 -75 -340 -75q-248 0 -396 152t-136 403zM150 559h862q10 99 -16 178t-81.5 130.5t-134.5 78.5t-176 27q-194 0 -314.5 -110.5 t-139.5 -303.5zM569 1214v5l187 256l32 -15v-4l-184 -242h-35z" />
<glyph unicode="&#xea;" horiz-adv-x="1144" d="M111 537q12 215 145.5 342t347.5 127q228 0 347.5 -129t90.5 -355h-895q-7 -231 130.5 -367.5t365.5 -136.5q161 0 326 74l14 -35q-172 -75 -340 -75q-248 0 -396 152t-136 403zM150 559h862q10 99 -16 178t-81.5 130.5t-134.5 78.5t-176 27q-194 0 -314.5 -110.5 t-139.5 -303.5zM338 1243v6l256 219h35l254 -223v-2h-43l-228 199l-229 -199h-45z" />
<glyph unicode="&#xeb;" horiz-adv-x="1144" d="M111 537q12 215 145.5 342t347.5 127q228 0 347.5 -129t90.5 -355h-895q-7 -231 130.5 -367.5t365.5 -136.5q161 0 326 74l14 -35q-172 -75 -340 -75q-248 0 -396 152t-136 403zM150 559h862q10 99 -16 178t-81.5 130.5t-134.5 78.5t-176 27q-194 0 -314.5 -110.5 t-139.5 -303.5zM385 1389q0 34 35 34q39 0 39 -34q0 -14 -11 -24.5t-28 -10.5q-14 0 -24.5 11t-10.5 24zM743 1389q0 34 35 34q39 0 39 -34q0 -14 -11 -24.5t-28 -10.5q-14 0 -24.5 11t-10.5 24z" />
<glyph unicode="&#xec;" horiz-adv-x="407" d="M20 1450v4l31 21l193 -265v-4h-37zM186 0v983h35v-983h-35z" />
<glyph unicode="&#xed;" horiz-adv-x="407" d="M184 1214v5l193 264l33 -15v-4l-189 -250h-37zM186 0v983h35v-983h-35z" />
<glyph unicode="&#xee;" horiz-adv-x="407" d="M-41 1225v8l234 246h30l232 -252v-2h-39l-205 223l-209 -223h-43zM186 0v983h35v-983h-35z" />
<glyph unicode="&#xef;" horiz-adv-x="407" d="M31 1343q0 39 39 39q18 0 29.5 -10.5t11.5 -28.5q0 -14 -12 -25t-29 -11t-28 11t-11 25zM186 0v983h35v-983h-35zM303 1343q0 39 39 39q18 0 29.5 -10.5t11.5 -28.5q0 -14 -12 -25t-29 -11t-28 11t-11 25z" />
<glyph unicode="&#xf0;" horiz-adv-x="1234" d="M111 473q0 110 38 200.5t102 148t145 94t171 41.5t175.5 -12t162.5 -64.5t129 -118.5q-84 241 -266 442l-152 -106l-18 26l145 105q-113 119 -243 190v2h53q108 -64 217 -176l145 107l19 -27l-141 -102q148 -161 238.5 -360.5t90.5 -389.5q0 -118 -43.5 -213.5 t-114.5 -154.5t-162 -90.5t-185.5 -31.5t-185.5 31.5t-162 90.5t-114.5 154.5t-43.5 213.5zM147 473q0 -110 40.5 -198.5t106.5 -143t150 -84t172 -29.5t172 29.5t150 84t106.5 143t40.5 198.5q0 109 -40.5 197.5t-106.5 143t-150 84t-172 29.5t-172 -29.5t-150 -84 t-106.5 -143t-40.5 -197.5z" />
<glyph unicode="&#xf1;" horiz-adv-x="1181" d="M63 991q112 12 143.5 -29t31.5 -190q46 114 148.5 175t229.5 59q178 0 290 -113.5t112 -292.5v-600h-37v600q0 164 -101 266.5t-264 102.5q-168 0 -273 -104.5t-105 -274.5v-590h-37v770q0 131 -24.5 165.5t-110.5 22.5zM336 1335q109 160 262 49q68 -50 119.5 -40 t101.5 79l21 -16q-104 -161 -258 -49q-68 49 -122 40t-104 -77z" />
<glyph unicode="&#xf2;" horiz-adv-x="1249" d="M109 496q0 123 44.5 222t117 160t165 94t189.5 33t189.5 -33t165 -94t117 -160t44.5 -222t-44.5 -222t-117 -160t-165 -94t-189.5 -33t-189.5 33t-165 94t-117 160t-44.5 222zM143 496q0 -114 41.5 -206.5t109 -149t153.5 -87.5t176.5 -31t176.5 31t153.5 87.5t109 149 t41.5 206.5t-41.5 206.5t-109 149t-153.5 87.5t-176.5 31t-176.5 -31t-153.5 -87.5t-109 -149t-41.5 -206.5zM469 1464v4l29 21l186 -254v-2h-37z" />
<glyph unicode="&#xf3;" horiz-adv-x="1249" d="M109 496q0 123 44.5 222t117 160t165 94t189.5 33t189.5 -33t165 -94t117 -160t44.5 -222t-44.5 -222t-117 -160t-165 -94t-189.5 -33t-189.5 33t-165 94t-117 160t-44.5 222zM143 496q0 -114 41.5 -206.5t109 -149t153.5 -87.5t176.5 -31t176.5 31t153.5 87.5t109 149 t41.5 206.5t-41.5 206.5t-109 149t-153.5 87.5t-176.5 31t-176.5 -31t-153.5 -87.5t-109 -149t-41.5 -206.5zM588 1223v4l186 256l33 -15v-4l-184 -241h-35z" />
<glyph unicode="&#xf4;" horiz-adv-x="1249" d="M109 496q0 123 44.5 222t117 160t165 94t189.5 33t189.5 -33t165 -94t117 -160t44.5 -222t-44.5 -222t-117 -160t-165 -94t-189.5 -33t-189.5 33t-165 94t-117 160t-44.5 222zM143 496q0 -114 41.5 -206.5t109 -149t153.5 -87.5t176.5 -31t176.5 31t153.5 87.5t109 149 t41.5 206.5t-41.5 206.5t-109 149t-153.5 87.5t-176.5 31t-176.5 -31t-153.5 -87.5t-109 -149t-41.5 -206.5zM371 1243v6l254 228h32l252 -232v-2h-43l-223 207l-227 -207h-45z" />
<glyph unicode="&#xf5;" horiz-adv-x="1249" d="M109 496q0 123 44.5 222t117 160t165 94t189.5 33t189.5 -33t165 -94t117 -160t44.5 -222t-44.5 -222t-117 -160t-165 -94t-189.5 -33t-189.5 33t-165 94t-117 160t-44.5 222zM143 496q0 -114 41.5 -206.5t109 -149t153.5 -87.5t176.5 -31t176.5 31t153.5 87.5t109 149 t41.5 206.5t-41.5 206.5t-109 149t-153.5 87.5t-176.5 31t-176.5 -31t-153.5 -87.5t-109 -149t-41.5 -206.5zM377 1360q109 160 262 49q68 -50 119.5 -40t101.5 79l21 -16q-104 -162 -258 -50q-68 49 -122 40.5t-104 -76.5z" />
<glyph unicode="&#xf6;" horiz-adv-x="1249" d="M109 496q0 123 44.5 222t117 160t165 94t189.5 33t189.5 -33t165 -94t117 -160t44.5 -222t-44.5 -222t-117 -160t-165 -94t-189.5 -33t-189.5 33t-165 94t-117 160t-44.5 222zM143 496q0 -114 41.5 -206.5t109 -149t153.5 -87.5t176.5 -31t176.5 31t153.5 87.5t109 149 t41.5 206.5t-41.5 206.5t-109 149t-153.5 87.5t-176.5 31t-176.5 -31t-153.5 -87.5t-109 -149t-41.5 -206.5zM442 1374q0 35 35 35q39 0 39 -35q0 -14 -11 -24.5t-28 -10.5q-13 0 -24 10.5t-11 24.5zM801 1374q0 35 35 35q38 0 38 -35q0 -14 -10.5 -24.5t-27.5 -10.5 q-14 0 -24.5 10.5t-10.5 24.5z" />
<glyph unicode="&#xf7;" horiz-adv-x="1032" d="M164 717v35h704v-35h-704zM479 457q0 32 33 32q35 0 35 -32q0 -12 -10.5 -21.5t-24.5 -9.5q-13 0 -23 9.5t-10 21.5zM479 1008q0 32 33 32q35 0 35 -32q0 -12 -10.5 -21.5t-24.5 -9.5q-13 0 -23 9.5t-10 21.5z" />
<glyph unicode="&#xf8;" horiz-adv-x="1251" d="M111 498q0 128 47.5 229.5t126 161.5t175 90.5t199 24t193.5 -45.5l80 156h41l-86 -170q118 -64 187 -176t69 -270q0 -105 -32.5 -193t-87.5 -147.5t-127.5 -100.5t-152.5 -56t-163.5 -9t-159.5 35l-72 -142h-39l78 156q-126 59 -201 175t-75 282zM145 498 q0 -154 70 -261t188 -165l433 854q-71 31 -150 40t-155.5 -4t-146.5 -50t-123 -92.5t-84.5 -139t-31.5 -182.5zM436 59q71 -27 148.5 -32.5t152 9t141.5 53t117.5 94t80.5 137t30 178.5q0 147 -63.5 251.5t-172.5 161.5z" />
<glyph unicode="&#xf9;" horiz-adv-x="1157" d="M164 399v588h35v-588q0 -170 89 -275.5t251 -105.5q173 0 279 104.5t106 278.5v586h34v-760q0 -105 11.5 -150t38.5 -56.5t90 -2.5l4 -32q-31 -4 -54.5 -4.5t-42 4.5t-31 12.5t-22 24t-14.5 33.5t-7.5 46.5t-3.5 57.5t-1 71q-48 -126 -148 -187.5t-239 -61.5 q-177 0 -276 116.5t-99 300.5zM395 1462v4l29 21l192 -260v-4h-36z" />
<glyph unicode="&#xfa;" horiz-adv-x="1157" d="M164 399v588h35v-588q0 -170 89 -275.5t251 -105.5q173 0 279 104.5t106 278.5v586h34v-760q0 -105 11.5 -150t38.5 -56.5t90 -2.5l4 -32q-31 -4 -54.5 -4.5t-42 4.5t-31 12.5t-22 24t-14.5 33.5t-7.5 46.5t-3.5 57.5t-1 71q-48 -126 -148 -187.5t-239 -61.5 q-177 0 -276 116.5t-99 300.5zM524 1219v4l189 258l32 -15v-4l-184 -243h-37z" />
<glyph unicode="&#xfb;" horiz-adv-x="1157" d="M164 399v588h35v-588q0 -170 89 -275.5t251 -105.5q173 0 279 104.5t106 278.5v586h34v-760q0 -105 11.5 -150t38.5 -56.5t90 -2.5l4 -32q-31 -4 -54.5 -4.5t-42 4.5t-31 12.5t-22 24t-14.5 33.5t-7.5 46.5t-3.5 57.5t-1 71q-48 -126 -148 -187.5t-239 -61.5 q-177 0 -276 116.5t-99 300.5zM293 1243v6l264 226h35l262 -230v-2h-45l-234 205l-235 -205h-47z" />
<glyph unicode="&#xfc;" horiz-adv-x="1157" d="M164 399v588h35v-588q0 -170 89 -275.5t251 -105.5q173 0 279 104.5t106 278.5v586h34v-760q0 -105 11.5 -150t38.5 -56.5t90 -2.5l4 -32q-31 -4 -54.5 -4.5t-42 4.5t-31 12.5t-22 24t-14.5 33.5t-7.5 46.5t-3.5 57.5t-1 71q-48 -126 -148 -187.5t-239 -61.5 q-177 0 -276 116.5t-99 300.5zM334 1364q0 39 37 39q18 0 29.5 -10.5t11.5 -28.5q0 -14 -12 -25.5t-29 -11.5q-16 0 -26.5 11.5t-10.5 25.5zM711 1364q0 39 39 39q15 0 26.5 -10.5t11.5 -28.5q0 -13 -12 -25t-26 -12q-17 0 -28 11.5t-11 25.5z" />
<glyph unicode="&#xfd;" horiz-adv-x="1105" d="M68 983v2h38l455 -956l422 956h39v-2l-565 -1282q-21 -48 -44 -83.5t-56 -66t-71 -43.5t-89 -8.5t-111 31.5l16 35q52 -23 96 -27t76.5 7.5t61 38.5t48.5 58.5t40 75.5l117 267zM514 1202v4l201 275l35 -15v-4l-197 -260h-39z" />
<glyph unicode="&#xfe;" horiz-adv-x="1191" d="M178 -506v1979h35v-611q88 72 189 109.5t196 39t183.5 -32.5t154.5 -96.5t105.5 -161t39.5 -218.5t-39.5 -218.5t-105.5 -161.5t-154.5 -96.5t-183.5 -32.5t-196 38.5t-189 109.5v-647h-35zM213 186q82 -72 178 -111.5t186.5 -44.5t175.5 24t148.5 87t102 151.5 t38.5 209.5t-38.5 209.5t-102 151t-148.5 86.5t-175.5 24.5t-186.5 -44.5t-178 -112v-631z" />
<glyph unicode="&#xff;" horiz-adv-x="1105" d="M68 983v2h38l455 -956l422 956h39v-2l-565 -1282q-21 -48 -44 -83.5t-56 -66t-71 -43.5t-89 -8.5t-111 31.5l16 35q52 -23 96 -27t76.5 7.5t61 38.5t48.5 58.5t40 75.5l117 267zM319 1372q0 39 39 39q18 0 29.5 -10.5t11.5 -28.5q0 -14 -12 -25.5t-29 -11.5t-28 11.5 t-11 25.5zM707 1372q0 39 38 39q18 0 29.5 -10.5t11.5 -28.5q0 -14 -12 -25.5t-29 -11.5t-27.5 11.5t-10.5 25.5z" />
<glyph unicode="&#x152;" horiz-adv-x="1914" d="M121 715q0 339 197 540t540 201q115 0 238 -24h676v-37h-662v-633h635v-39h-635v-686h666v-35h-689q-145 -31 -237 -31q-223 0 -389 94t-253 262t-87 388zM156 715q0 -157 48 -287.5t136 -223.5t219 -144.5t291 -51.5q109 0 223 27v1364q-106 20 -215 20 q-328 0 -515 -190.5t-187 -513.5z" />
<glyph unicode="&#x153;" horiz-adv-x="1937" d="M111 492q0 113 33.5 206t89.5 153.5t129 98t151.5 47t158 -8.5t147 -60t120 -114.5t76.5 -166.5q38 165 147.5 261t278.5 96q220 0 319.5 -134.5t73.5 -353.5h-799q-12 -228 100 -363t324 -139q130 -3 299 74l17 -35q-175 -76 -316 -73q-178 4 -292.5 95.5t-151.5 252.5 q-25 -92 -78.5 -164t-121.5 -113.5t-147.5 -58.5t-157.5 -7.5t-150.5 47.5t-128 99t-88.5 154.5t-33 206.5zM147 492q0 -114 36.5 -207t96.5 -150t136 -88.5t156 -31.5t156 31t136 88t96.5 150t36.5 208q0 114 -36.5 206.5t-96.5 149t-136 87.5t-156 31t-156 -31t-136 -87.5 t-96.5 -149t-36.5 -206.5zM1038 549h762q21 190 -75.5 305t-284.5 115q-180 0 -282 -113.5t-120 -306.5z" />
<glyph unicode="&#x178;" horiz-adv-x="1273" d="M76 1432v2h41l520 -791l520 791h39v-4l-541 -828v-602h-37v602zM403 1647q0 39 39 39q18 0 29.5 -10.5t11.5 -28.5q0 -14 -12 -25.5t-29 -11.5t-28 11.5t-11 25.5zM791 1647q0 39 38 39q18 0 29.5 -10.5t11.5 -28.5q0 -14 -12 -25.5t-29 -11.5t-27.5 11.5t-10.5 25.5z " />
<glyph unicode="&#x2c6;" horiz-adv-x="1011" d="M193 1198v6l276 238h37l274 -242v-2h-47l-244 215l-247 -215h-49z" />
<glyph unicode="&#x2dc;" horiz-adv-x="860" d="M154 1350q117 168 278 51q73 -53 127.5 -42.5t106.5 83.5l22 -17q-112 -171 -274 -53q-72 53 -129.5 43.5t-108.5 -82.5z" />
<glyph unicode="&#x2000;" horiz-adv-x="948" />
<glyph unicode="&#x2001;" horiz-adv-x="1896" />
<glyph unicode="&#x2002;" horiz-adv-x="948" />
<glyph unicode="&#x2003;" horiz-adv-x="1896" />
<glyph unicode="&#x2004;" horiz-adv-x="632" />
<glyph unicode="&#x2005;" horiz-adv-x="474" />
<glyph unicode="&#x2006;" horiz-adv-x="316" />
<glyph unicode="&#x2007;" horiz-adv-x="316" />
<glyph unicode="&#x2008;" horiz-adv-x="237" />
<glyph unicode="&#x2009;" horiz-adv-x="379" />
<glyph unicode="&#x200a;" horiz-adv-x="105" />
<glyph unicode="&#x2010;" horiz-adv-x="923" d="M154 666v34h616v-34h-616z" />
<glyph unicode="&#x2011;" horiz-adv-x="923" d="M154 666v34h616v-34h-616z" />
<glyph unicode="&#x2012;" horiz-adv-x="923" d="M154 666v34h616v-34h-616z" />
<glyph unicode="&#x2013;" horiz-adv-x="1112" d="M154 666v34h804v-34h-804z" />
<glyph unicode="&#x2014;" horiz-adv-x="1292" d="M154 666v34h985v-34h-985z" />
<glyph unicode="&#x2018;" horiz-adv-x="409" d="M166 1282q0 12 2 14l41 138h35l-35 -119q24 -6 24 -33q0 -31 -32 -31q-14 0 -24.5 9t-10.5 22z" />
<glyph unicode="&#x2019;" horiz-adv-x="409" d="M168 1249l35 119q-25 6 -25 33q0 31 33 31q14 0 24.5 -9t10.5 -22t-2 -15l-41 -137h-35z" />
<glyph unicode="&#x201a;" horiz-adv-x="352" d="M129 -147l39 131q-25 6 -25 32q0 31 33 31q14 0 24.5 -9t10.5 -22q0 -12 -2 -14l-45 -149h-35z" />
<glyph unicode="&#x201c;" horiz-adv-x="630" d="M172 1278q0 12 2 14l41 138h35l-35 -119q25 -6 25 -33q0 -31 -33 -31q-14 0 -24.5 9t-10.5 22zM385 1278q0 12 2 14l41 138h35l-35 -119q25 -6 25 -33q0 -31 -33 -31q-14 0 -24.5 9t-10.5 22z" />
<glyph unicode="&#x201d;" horiz-adv-x="622" d="M168 1249l35 119q-25 6 -25 33q0 31 33 31q14 0 24.5 -9t10.5 -22t-2 -15l-41 -137h-35zM381 1249l35 119q-25 6 -25 33q0 31 33 31q14 0 24.5 -9t10.5 -22t-2 -15l-41 -137h-35z" />
<glyph unicode="&#x201e;" horiz-adv-x="649" d="M129 -139l39 123q-25 6 -25 32q0 31 33 31q14 0 24.5 -9t10.5 -22q0 -12 -2 -14l-45 -141h-35zM426 -139l39 123q-25 6 -25 32q0 31 33 31q14 0 24.5 -9t10.5 -22q0 -12 -2 -14l-45 -141h-35z" />
<glyph unicode="&#x2022;" horiz-adv-x="653" d="M205 729q0 54 35 85.5t86 31.5q50 0 86.5 -32t36.5 -85q0 -44 -38 -80.5t-85 -36.5q-49 0 -85 36t-36 81z" />
<glyph unicode="&#x2026;" horiz-adv-x="1073" d="M154 31q0 39 39 39q18 0 29 -10.5t11 -28.5q0 -14 -11.5 -25.5t-28.5 -11.5t-28 11.5t-11 25.5zM492 31q0 39 38 39q18 0 29.5 -10.5t11.5 -28.5q0 -14 -12 -25.5t-29 -11.5t-27.5 11.5t-10.5 25.5zM840 31q0 39 39 39q18 0 29.5 -10.5t11.5 -28.5q0 -14 -12 -25.5 t-29 -11.5t-28 11.5t-11 25.5z" />
<glyph unicode="&#x202f;" horiz-adv-x="379" />
<glyph unicode="&#x2039;" horiz-adv-x="555" d="M135 709l246 415l22 -12l-227 -403l227 -400l-22 -14z" />
<glyph unicode="&#x203a;" horiz-adv-x="555" d="M152 309l227 400l-227 403l22 12l246 -415l-246 -414z" />
<glyph unicode="&#x205f;" horiz-adv-x="474" />
<glyph unicode="&#x20ac;" horiz-adv-x="1398" d="M115 528v33h174q-24 153 0 309h-174v33h180q55 248 244.5 399.5t453.5 147.5q108 0 221 -35l-14 -35q-100 35 -207 35q-253 0 -428.5 -140t-230.5 -372h649l-12 -33h-645q-27 -156 0 -309h542l-12 -33h-522q55 -230 231 -371t424 -141q133 0 262 52l11 -33 q-127 -53 -273 -53q-263 0 -451 150.5t-243 395.5h-180z" />
<glyph unicode="&#x2122;" horiz-adv-x="1552" d="M147 1405v31h504v-31h-233v-541h-35v541h-236zM772 864v572h27l270 -353l272 353h27v-572h-37v498l-258 -332h-8l-256 332v-498h-37z" />
<glyph unicode="&#x25fc;" horiz-adv-x="983" d="M0 0v983h983v-983h-983z" />
</font>
</defs>
</svg>
