<?xml version="1.0" encoding="UTF-8" standalone="no"?>
<svg width="1024px" height="1024px" viewBox="0 0 1024 1024" version="1.1" xmlns="http://www.w3.org/2000/svg" xmlns:xlink="http://www.w3.org/1999/xlink" xmlns:sketch="http://www.bohemiancoding.com/sketch/ns">
    <!-- Generator: Sketch 3.2.2 (9983) - http://www.bohemiancoding.com/sketch -->
    <title>iTunesArtwork@2x</title>
    <desc>Created with Sketch.</desc>
    <defs>
        <linearGradient x1="50%" y1="0%" x2="50%" y2="100%" id="linearGradient-1">
            <stop stop-color="#00C866" offset="0%"></stop>
            <stop stop-color="#009DEA" offset="100%"></stop>
        </linearGradient>
        <path id="path-2" d="M357.009067,0 L666.990933,0 C769.792,0 821.179733,0 876.5184,17.4933333 C936.9344,39.4837333 984.516267,87.0656 1006.50667,147.4816 C1024,202.811733 1024,254.216533 1024,357.009067 L1024,666.990933 C1024,769.792 1024,821.179733 1006.50667,876.5184 C984.516267,936.9344 936.9344,984.516267 876.5184,1006.49813 C821.179733,1024 769.792,1024 666.990933,1024 L357.009067,1024 C254.208,1024 202.811733,1024 147.4816,1006.49813 C87.0656,984.516267 39.4837333,936.9344 17.4933333,876.5184 C0,821.179733 0,769.792 0,666.990933 L0,357.009067 C0,254.216533 0,202.811733 17.4933333,147.4816 C39.4837333,87.0656 87.0656,39.4837333 147.4816,17.4933333 C202.811733,0 254.208,0 357.009067,0 L357.009067,0"></path>
        <linearGradient x1="50%" y1="100%" x2="50%" y2="0%" id="linearGradient-4">
            <stop stop-color="#FFFFFF" stop-opacity="0.745272871" offset="0%"></stop>
            <stop stop-color="#FFFFFF" offset="100%"></stop>
        </linearGradient>
        <linearGradient x1="80.8545822%" y1="-4.51028104e-15%" x2="13.8582124%" y2="100%" id="linearGradient-5">
            <stop stop-color="#FFFFFF" offset="0%"></stop>
            <stop stop-color="#FFFFFF" stop-opacity="0.75" offset="100%"></stop>
        </linearGradient>
        <linearGradient x1="50%" y1="100%" x2="50%" y2="3.061617e-15%" id="linearGradient-6">
            <stop stop-color="#FFFFFF" offset="0%"></stop>
            <stop stop-color="#FFFFFF" stop-opacity="0.75" offset="100%"></stop>
        </linearGradient>
        <linearGradient x1="87.2659655%" y1="95.6028653%" x2="17.9354416%" y2="1.04083409e-14%" id="linearGradient-7">
            <stop stop-color="#FFFFFF" offset="0%"></stop>
            <stop stop-color="#FFFFFF" stop-opacity="0.75" offset="100%"></stop>
        </linearGradient>
        <linearGradient x1="50%" y1="0%" x2="50%" y2="100%" id="linearGradient-8">
            <stop stop-color="#FFFFFF" offset="0%"></stop>
            <stop stop-color="#FFFFFF" stop-opacity="0.75" offset="100%"></stop>
        </linearGradient>
    </defs>
    <g id="Page-1" stroke="none" stroke-width="1" fill="none" fill-rule="evenodd" sketch:type="MSPage">
        <g id="iTunesArtwork@2x" sketch:type="MSArtboardGroup">
            <g id="Fill-1" sketch:type="MSLayerGroup">
                <mask id="mask-3" sketch:name="Mask" fill="white">
                    <use xlink:href="#path-2"></use>
                </mask>
                <use id="Mask" fill="url(#linearGradient-1)" sketch:type="MSShapeGroup" xlink:href="#path-2"></use>
                <path d="M884.624,629.544 C886.2,586.352 891.39,552.208 886.962,509.126 C883.06,425.364 857.188,344.804 830.444,265.996 C798.472,168.396 742.858,81.752 681.378,0 L1021.056,0 C1022.046,0.97 1023.028,1.95 1024,2.936 L1024,401.022 C985.456,482.152 939.556,560.002 884.624,629.544 Z M821.336,272.826 C709.406,182.768 569.042,135.902 427.804,118.82 C285.002,97.604 140.246,116.708 0,147.658 L0,14.974 C4.854,9.766 9.93,4.768 15.216,0 L667.118,0 C730.63,83.758 788.474,172.504 821.336,272.826 L821.336,272.826 Z M1021.832,1024 L349.002,1024 C312.138,978.838 278.422,931.008 250.516,880.226 C230.474,843.852 208.56,806.776 197.024,766.672 L194.746,764.394 C306.966,843.908 440.978,886.574 576.272,904.994 C725.094,927.592 876.96,916.264 1024,885.734 L1024,1021.704 C1023.278,1022.468 1022.564,1023.244 1021.832,1024 L1021.832,1024 Z M585.378,895.886 C707.158,836.718 808.89,744.86 891.454,638.654 C943.168,573.186 986.892,501.846 1024,427.126 L1024,874.232 C879.804,904.348 731.128,918.018 585.378,895.886 L585.378,895.886 Z M124.75,359.958 C80.512,410.814 36.82,466.214 0,524.982 L0,159.034 C130.302,130.28 264.5,111.756 397.404,126.29 C294.828,190.17 201.906,267.112 124.75,359.958 Z M0,544.796 C35.726,484.654 79.212,427.1 129.302,373.62 C122.718,432.176 120.27,491.536 127.838,550.01 C149.848,725.36 223.622,858.488 236.854,882.504 C264.292,932.434 296.484,979.506 331.96,1024 L0,1024 L0,544.796 L0,544.796 Z" fill-opacity="0.75" fill="url(#linearGradient-4)" sketch:type="MSShapeGroup" mask="url(#mask-3)"></path>
                <g id="Group-6" mask="url(#mask-3)" sketch:type="MSShapeGroup">
                    <g transform="translate(296.000000, 312.000000)">
                        <path d="M216.099083,143.766337 C218.265028,139.849505 221.382165,136.669307 224.071266,133.156436 C229.917138,125.514851 235.443963,117.627723 241.252183,109.954455 C244.68044,105.425743 248.372257,101.047525 251.762862,96.5346535 C256.197798,90.6316832 260.660477,84.7069307 264.978495,78.6970297 C269.219229,72.7980198 274.211009,67.4217822 278.26745,61.409901 C284.781138,51.760396 292.253945,42.8415842 298.96778,33.350495 C301.183266,30.2158416 304.070532,27.5623762 306.410862,24.5049505 C308.84433,21.3188119 311.361028,18.0811881 313.433835,14.750495 C319.51156,4.99207921 328.674716,0.946534653 339.16756,0.742574257 C337.318679,1.01980198 338.864367,1.19207921 342.550239,1.28910891 L341.696147,1.0970297 L390.35956,1.0970297 C402.721101,0.936633663 412.407413,0.77029703 412.407413,0.77029703 L412.837431,1.18415842 C423.17967,2.06138614 431.30444,10.7128713 431.30444,21.2752475 L429.352514,20.8336634 C414.882495,39.0792079 313.756844,164.170297 310.802202,168.053465 C308.600587,170.950495 299.403743,182.962376 290.046385,195.245545 C286.156404,200.730693 278.84411,210.754455 270.584587,220.942574 C268.553394,223.671287 266.615339,226.467327 264.6,229.207921 C260.793248,234.378218 257.246092,239.774257 253.058862,244.621782 C248.415853,249.99802 242.128073,253.382178 235.000073,253.487129 C224.669725,253.635644 214.337394,253.425743 204.007046,253.568317 C199.082642,253.635644 194.489174,252.609901 189.836257,251.110891 C187.256147,250.277228 184.913835,248.655446 183.104587,246.732673 C177.07244,240.332673 157.71567,214.944554 158.333945,215.283168" id="Fill-1" fill="url(#linearGradient-5)"></path>
                        <path d="M341.593101,0.506930693 L411.006385,0.506930693 C422.159119,0.506930693 431.201394,9.54059406 431.201394,20.6851485 L431.201394,378.821782 C431.201394,389.966337 422.159119,399 411.006385,399 L341.593101,399 C330.440367,399 321.400073,389.966337 321.400073,378.821782 L321.400073,20.6851485 C321.400073,9.54059406 330.440367,0.506930693 341.593101,0.506930693" id="Fill-2" fill="url(#linearGradient-6)"></path>
                        <path d="M0,21.6257426 L1.95390826,21.1861386 C16.421945,39.429703 117.547596,164.520792 120.500257,168.40396 C122.703853,171.30099 131.898716,183.312871 141.258055,195.59604 C145.148037,201.081188 152.46033,211.106931 160.719853,221.293069 C162.751046,224.019802 164.685138,226.815842 166.70444,229.558416 C170.511193,234.730693 174.058349,240.124752 178.245578,244.970297 C182.888587,250.346535 189.174385,253.031683 196.304367,253.134653 C206.632734,253.287129 216.967046,253.073267 227.297394,253.217822 C232.221798,253.287129 236.815266,252.261386 241.468183,250.760396 C244.048294,249.928713 246.388624,249.005941 248.199853,247.083168 C254.232,240.681188 276.220404,212.669307 275.600147,213.005941 C274.137688,213.805941 216.497394,144.893069 217.214752,143.80198 C217.434716,143.469307 215.32822,144.340594 215.207339,144.116832 C213.039413,140.2 209.924257,137.019802 207.233174,133.506931 C201.385321,125.865347 195.860477,117.978218 190.052257,110.306931 C186.624,105.776238 182.930202,101.4 179.541578,96.8851485 C175.106642,90.9821782 170.643963,85.0574257 166.327927,79.0475248 C162.085211,73.1485149 157.093431,67.7722772 153.036991,61.760396 C146.521321,52.1108911 139.050495,43.1920792 132.338642,33.7009901 C130.121174,30.5663366 127.233908,27.9148515 124.893578,24.8554455 C122.458128,21.6693069 119.943413,18.4336634 117.868624,15.1009901 C111.792881,5.34455446 102.629725,1.2970297 92.1368807,1.09306931 C93.9857615,1.37029703 92.4380917,1.54257426 88.7561835,1.63960396 L89.6063119,1.44752475 L40.9448807,1.44752475 C28.5833394,1.28712871 18.8970275,1.12079208 18.8970275,1.12079208 L18.4670092,1.53465347 C8.12477064,2.41188119 0,11.0633663 0,21.6257426" id="Fill-4" fill="url(#linearGradient-7)"></path>
                        <path d="M89.6082936,1.09306931 C100.759046,1.09306931 109.799339,10.1267327 109.799339,21.2712871 L109.799339,379.407921 C109.799339,390.552475 100.759046,399.586139 89.6082936,399.586139 L20.1930275,399.586139 C9.04029358,399.586139 0,390.552475 0,379.407921 L0,21.2712871 C0,10.1267327 9.04029358,1.09306931 20.1930275,1.09306931 L89.6082936,1.09306931 Z" id="Fill-5" fill="url(#linearGradient-8)"></path>
                    </g>
                </g>
            </g>
        </g>
    </g>
</svg>