<?xml version="1.0" encoding="UTF-8" standalone="no"?>
<svg width="1711px" height="1538px" viewBox="0 0 1711 1538" version="1.1" xmlns="http://www.w3.org/2000/svg" xmlns:xlink="http://www.w3.org/1999/xlink" xmlns:sketch="http://www.bohemiancoding.com/sketch/ns">
    <!-- Generator: Sketch 3.3.2 (12043) - http://www.bohemiancoding.com/sketch -->
    <title>react</title>
    <desc>Created with Sketch.</desc>
    <defs></defs>
    <g id="Page-1" stroke="none" stroke-width="1" fill="none" fill-rule="evenodd" sketch:type="MSPage">
        <g id="react" sketch:type="MSLayerGroup">
            <path d="M0.0697171748,766.321857 C0.0697171748,895.475645 126.203414,1016.04595 325.063598,1084.00593 C285.353076,1283.89502 317.946774,1445.00428 426.813283,1507.78186 C538.716787,1572.30452 705.425412,1527.64135 863.654528,1389.34961 C1017.89158,1522.05864 1173.77562,1574.28627 1282.54068,1511.33028 C1394.33477,1446.62031 1428.34011,1274.58389 1387.53137,1068.45565 C1594.65478,999.985124 1710.51389,897.175721 1710.51389,766.321857 C1710.51389,640.162379 1584.14616,531.017438 1387.96815,463.491721 C1431.90035,248.84454 1394.67532,91.6447377 1281.3024,26.2746057 C1171.99902,-36.7462494 1014.3054,18.1828508 857.799995,154.367455 C694.982713,9.8182597 538.845058,-34.3144235 425.582045,31.2462358 C316.384903,94.4463546 285.22453,258.48341 325.063598,462.073087 C132.91818,529.056978 0.0697171748,640.666909 0.0697171748,766.321857 L0.0697171748,766.321857 Z" id="Shape" fill="#FFFFFF" sketch:type="MSShapeGroup"></path>
            <path d="M1297.51985,515.141502 C1300.28319,503.865285 1302.8194,492.735056 1305.07441,481.794071 C1342.09011,302.139694 1317.88795,157.408876 1235.2448,109.757332 C1156.00039,64.0658118 1026.4022,111.706542 895.514265,225.59876 C882.927846,236.550559 870.306274,248.145786 857.69012,260.297929 C849.283849,252.257779 840.891103,244.487977 832.519991,237.05611 C695.345609,115.275135 557.849467,63.9549689 475.287433,111.744391 C396.118728,157.568382 372.673653,293.629138 405.993186,463.888922 C409.210767,480.334192 412.971821,497.128212 417.224976,514.203394 C397.765373,519.726604 378.979029,525.614784 361.00384,531.878748 C200.181594,587.940819 97.4731796,675.803927 97.4731796,766.94095 C97.4731796,861.06803 207.730741,955.47897 375.239606,1012.72516 C388.458724,1017.24268 402.175351,1021.51418 416.311075,1025.56939 C411.722643,1044.03687 407.731762,1062.13397 404.381692,1079.78499 C372.611464,1247.08987 397.421984,1379.93619 476.379788,1425.47091 C557.935991,1472.49525 694.810243,1424.15972 828.091078,1307.67216 C838.625279,1298.4641 849.197328,1288.69914 859.788302,1278.46376 C873.515751,1291.68108 887.221553,1304.19008 900.854367,1315.92318 C1029.95235,1427.00108 1157.45777,1471.85452 1236.34256,1426.19274 C1317.81765,1379.03322 1344.29645,1236.32461 1309.9197,1062.6963 C1307.29426,1049.43572 1304.23892,1035.88858 1300.80773,1022.10084 C1310.41992,1019.25947 1319.85635,1016.3262 1329.05755,1013.27667 C1503.19896,955.58711 1616.50105,862.325144 1616.50105,766.94095 C1616.50105,675.474105 1510.48042,587.018932 1346.41897,530.548635 C1330.66093,525.125454 1314.33239,519.994248 1297.51985,515.141502 Z" id="Shape" fill="#FFAD51" sketch:type="MSShapeGroup"></path>
            <path d="M1308.6489,951.688689 C1300.34267,954.438122 1291.82014,957.095649 1283.13538,959.672065 C1263.91101,898.819428 1237.96488,834.111625 1206.21357,767.257261 C1236.51291,701.995244 1261.45591,638.11471 1280.14222,577.65678 C1295.68124,582.152667 1310.76331,586.894573 1325.2965,591.898715 C1465.86421,640.282901 1551.60867,711.819691 1551.60867,766.94095 C1551.60867,825.655139 1459.00725,901.874358 1308.6489,951.688689 L1308.6489,951.688689 L1308.6489,951.688689 Z M1246.26028,1075.29721 C1261.46132,1152.07335 1263.63251,1221.48791 1253.56337,1275.75217 C1244.5163,1324.51214 1226.3221,1357.02149 1203.82607,1370.04145 C1155.95442,1397.74672 1053.58129,1361.73366 943.175014,1266.73877 C930.518296,1255.84915 917.769646,1244.22148 904.980437,1231.91523 C947.782373,1185.10988 990.559972,1130.69694 1032.31011,1070.26604 C1105.74394,1063.75065 1175.12202,1053.09894 1238.03788,1038.55692 C1241.13649,1051.0551 1243.88901,1063.31269 1246.26028,1075.29721 L1246.26028,1075.29721 L1246.26028,1075.29721 Z M615.344117,1365.25359 C568.572933,1381.76915 531.322003,1382.24226 508.804347,1369.26014 C460.889436,1341.62787 440.970179,1234.96476 468.141159,1091.88577 C471.25329,1075.49997 474.957564,1058.66811 479.226941,1041.46316 C541.453326,1055.22117 610.323068,1065.12131 683.932656,1071.0879 C725.963994,1130.22113 769.977251,1184.57459 814.331193,1232.16666 C804.640598,1241.5207 794.987852,1250.42597 785.389189,1258.81757 C726.45339,1310.32698 667.393214,1346.87262 615.344117,1365.25359 L615.344117,1365.25359 L615.344117,1365.25359 Z M396.226883,951.329123 C322.157639,926.016438 260.988459,893.117787 219.059869,857.218275 C181.384436,824.957645 162.362856,792.929512 162.362856,766.94095 C162.362856,711.635858 244.827553,641.093945 382.364248,593.147722 C399.052406,587.329832 416.521975,581.847174 434.651284,576.697044 C453.659343,638.520232 478.59424,703.157742 508.685378,768.519785 C478.204886,834.852374 452.915785,900.51992 433.721159,963.067632 C420.796761,959.353051 408.275235,955.443822 396.226883,951.329123 L396.226883,951.329123 L396.226883,951.329123 Z M469.676946,451.428581 C441.129706,305.55419 460.089097,195.511728 507.798515,167.89838 C558.617361,138.481811 670.992034,180.423604 789.431449,285.57547 C797.002222,292.296323 804.602743,299.330778 812.224897,306.608548 C768.089966,353.992447 724.479584,407.937693 682.821381,466.722168 C611.380273,473.342992 542.99452,483.978484 480.119212,498.220418 C476.166184,482.32125 472.664699,466.700541 469.676946,451.428581 L469.676946,451.428581 L469.676946,451.428581 Z M1124.91694,613.202139 C1109.88625,587.243321 1094.45537,561.898193 1078.72438,537.245156 C1127.19088,543.371243 1173.62678,551.503312 1217.23446,561.454823 C1204.14242,603.40743 1187.8247,647.271398 1168.61655,692.238384 C1154.83774,666.082214 1140.26399,639.709763 1124.91694,613.202139 L1124.91694,613.202139 L1124.91694,613.202139 Z M857.711747,352.978642 C887.643359,385.401482 917.618231,421.601082 947.101005,460.877244 C917.391106,459.474138 887.313485,458.744198 856.987119,458.744198 C826.947353,458.744198 797.091452,459.457917 767.565418,460.836692 C797.077932,421.9255 827.312373,385.774561 857.711747,352.978642 L857.711747,352.978642 L857.711747,352.978642 Z M588.795021,613.650916 C573.780547,639.682729 559.477185,665.911895 545.914677,692.189726 C527.017475,647.379537 510.851161,603.315511 497.645562,560.768138 C540.98556,551.070754 587.202454,543.141447 635.360712,537.13161 C619.408002,562.011739 603.850053,587.543407 588.795021,613.64551 L588.795021,613.650916 L588.795021,613.650916 Z M636.747786,1001.37865 C586.991554,995.828407 540.079771,988.307332 496.750587,978.877586 C510.167087,935.570537 526.690309,890.565704 545.987681,844.790371 C559.585339,871.049275 573.945482,897.289258 589.051887,923.377846 L589.05459,923.377846 C604.442197,949.955757 620.384091,975.99027 636.747786,1001.37865 L636.747786,1001.37865 L636.747786,1001.37865 Z M859.507106,1185.47755 C828.75082,1152.29774 798.072946,1115.59529 768.111593,1076.11637 C797.196896,1077.25724 826.850009,1077.84119 856.987119,1077.84119 C887.948897,1077.84119 918.556465,1077.14369 948.682758,1075.80277 C919.102641,1115.99271 889.235929,1152.75192 859.507106,1185.47755 L859.507106,1185.47755 L859.507106,1185.47755 Z M1169.23573,842.457269 C1189.53893,888.727335 1206.6543,933.496968 1220.24385,976.06597 C1176.20085,986.1121 1128.64825,994.203622 1078.54593,1000.21616 C1094.31478,975.230592 1109.88084,949.450202 1125.17651,922.931765 C1140.65064,896.102434 1155.34336,869.232544 1169.23573,842.457269 L1169.23573,842.457269 L1169.23573,842.457269 Z M1068.96618,890.517038 C1045.22098,931.682931 1020.84308,970.980719 996.094749,1008.07518 C951.018875,1011.29772 904.450484,1012.95766 856.987119,1012.95766 C809.715726,1012.95766 763.734062,1011.48967 719.455831,1008.61587 C693.709778,971.034795 668.80192,931.620755 645.208131,890.871193 L645.213538,890.871193 C621.681938,850.232479 600.024107,809.250419 580.39957,768.498162 C600.018699,727.651275 621.61975,686.623258 645.016157,646.057535 L645.010749,646.065646 C668.469343,605.391785 693.158191,566.169692 718.666302,528.823815 C763.842216,525.40932 810.167267,523.627726 856.984416,523.627726 L856.987119,523.627726 C904.015165,523.627726 950.399698,525.422837 995.562086,528.867071 C1020.68085,565.939897 1045.20206,605.034925 1068.75259,645.714194 C1092.5708,686.850352 1114.45034,727.605312 1134.23711,767.576275 C1114.50983,808.233911 1092.67895,849.399811 1068.96618,890.517038 L1068.96618,890.517038 L1068.96618,890.517038 Z M1202.83106,165.968095 C1253.69857,195.298153 1273.47993,313.58623 1241.52043,468.698413 C1239.48173,478.595854 1237.18617,488.677132 1234.69321,498.893584 C1171.67189,484.354268 1103.23747,473.534939 1031.58818,466.814087 C989.848857,407.38348 946.59538,353.354425 903.179673,306.578809 C914.852194,295.351256 926.508487,284.645473 938.116108,274.542568 C1050.26096,176.960446 1155.07567,138.433148 1202.83106,165.968095 L1202.83106,165.968095 L1202.83106,165.968095 Z" id="Shape" fill="#FFFFFF" sketch:type="MSShapeGroup"></path>
            <path d="M856.987119,631.315457 C931.899963,631.315457 992.631115,692.035623 992.631115,766.94095 C992.631115,841.843574 931.899963,902.566455 856.987119,902.566455 C782.074274,902.566455 721.343116,841.843574 721.343116,766.94095 C721.343116,692.035623 782.074274,631.315457 856.987119,631.315457" id="Shape" fill="#FFAD51" sketch:type="MSShapeGroup"></path>
        </g>
    </g>
</svg>