<?xml version="1.0" encoding="UTF-8" standalone="no"?>
<svg width="1000px" height="1000px" viewBox="0 0 1000 1000" version="1.1" xmlns="http://www.w3.org/2000/svg" xmlns:xlink="http://www.w3.org/1999/xlink" xmlns:sketch="http://www.bohemiancoding.com/sketch/ns">
    <!-- Generator: Sketch 3.3.2 (12043) - http://www.bohemiancoding.com/sketch -->
    <title>Artboard 1</title>
    <desc>Created with Sketch.</desc>
    <defs></defs>
    <g id="Page-1" stroke="none" stroke-width="1" fill="none" fill-rule="evenodd" sketch:type="MSPage">
        <g id="Artboard-1" sketch:type="MSArtboardGroup">
            <g id="Group" sketch:type="MSLayerGroup">
                <rect id="Rectangle-1" sketch:type="MSShapeGroup" x="0" y="0" width="1000" height="1000"></rect>
                <path d="M116.882927,546.202468 C100.367174,561.888128 97.8441021,559.68413 111.284192,541.2293 L328.916619,242.394289 L386.711782,289.935377 L116.882927,546.202468 L116.882927,546.202468 Z" id="Triangle-1" stroke="#B7C8D2" stroke-width="5" fill="#9EA2AB" sketch:type="MSShapeGroup"></path>
                <path d="M475.3503,916.019367 C457.077667,933.994574 454.84048,931.922091 470.389787,911.342192 L727.448737,571.118207 L774.649847,621.591562 L475.3503,916.019367 L475.3503,916.019367 Z" id="Triangle-2" stroke="#B7C8D2" stroke-width="5" fill="#9EA2AB" sketch:type="MSShapeGroup"></path>
                <path d="M282.518352,283.417465 L342.688068,203.647472 C356.932083,184.763471 386.934446,173.179189 409.63272,177.759632 L421.565443,180.16762 C443.219425,184.537328 449.757628,202.683896 436.21557,220.637278 L348.553043,336.855861 L282.518352,283.417465 L282.518352,283.417465 Z" id="Rectangle-1" fill="#3B4554" sketch:type="MSShapeGroup"></path>
                <path d="M805.623364,487.582757 L693.967431,594.88568 L754.336724,660.353825 L820.970583,569.529016 C837.383282,552.556297 821.227232,471.446468 805.623364,487.582757 Z" id="Rectangle-2" fill="#3B4554" sketch:type="MSShapeGroup"></path>
                <path d="M595.033445,121.390603 C729.596678,121.390603 838.68118,230.617205 838.68118,365.354659 C838.68118,500.092592 729.5962,609.318715 595.033445,609.318715 C460.470212,609.318715 351.38571,500.092113 351.38571,365.354659 C351.38571,230.616727 460.47069,121.390603 595.033445,121.390603 L595.033445,121.390603 Z" id="Shape" stroke="#434E65" stroke-width="7.99800768" sketch:type="MSShapeGroup"></path>
                <path d="M595.033445,121.390603 C729.596678,121.390603 838.68118,230.617205 838.68118,365.354659 C838.68118,500.092592 729.5962,609.318715 595.033445,609.318715 C460.470212,609.318715 351.38571,500.092113 351.38571,365.354659 C351.38571,230.616727 460.47069,121.390603 595.033445,121.390603 L595.033445,121.390603 Z" id="Shape" stroke="#434E65" stroke-width="10" fill="#B7C8D2" sketch:type="MSShapeGroup"></path>
                <path d="M197.111254,829.021653 C176.905956,849.860545 174.628343,847.924554 192.032013,824.68688 L556.755812,337.701527 L621.850377,390.963648 L197.111254,829.021653 L197.111254,829.021653 Z" id="Triangle-3" stroke="#B7C8D2" stroke-width="5" fill="#9EA2AB" sketch:type="MSShapeGroup"></path>
                <ellipse id="Oval-1" fill="#9EA2AB" sketch:type="MSShapeGroup" cx="403.410882" cy="330.925359" rx="14.6188653" ry="14.6378446"></ellipse>
                <ellipse id="Oval-2" fill="#3B4554" sketch:type="MSShapeGroup" cx="413.156793" cy="408.993864" rx="14.6188653" ry="14.6378446"></ellipse>
                <ellipse id="Oval-4" fill="#9EA2AB" sketch:type="MSShapeGroup" cx="661.677503" cy="535.855183" rx="14.6188653" ry="14.6378446"></ellipse>
                <ellipse id="Oval-3" fill="#DD015A" sketch:type="MSShapeGroup" cx="562.05314" cy="535.855183" rx="14.6188653" ry="14.6378446"></ellipse>
                <path d="M574.665336,376.797461 L599.094359,349.197505 C566.657198,337.350643 539.145075,325.238673 524.57559,340.363114 L450.377738,411.809856 L512.459068,447.078219 L512.700632,446.8053 L556.133033,508.059156 L615.132707,423.230778 C629.038149,407.825484 599.347748,349.632026 599.181797,349.260402 L574.665336,376.797461 Z" id="Rectangle-5" fill="#3B4554" sketch:type="MSShapeGroup"></path>
            </g>
        </g>
    </g>
</svg>