<?xml version="1.0" encoding="UTF-8" standalone="no"?>
<svg width="625px" height="625px" viewBox="0 0 625 625" version="1.1" xmlns="http://www.w3.org/2000/svg" xmlns:xlink="http://www.w3.org/1999/xlink" xmlns:sketch="http://www.bohemiancoding.com/sketch/ns">
    <!-- Generator: Sketch Beta 3.4 (15009) - http://www.bohemiancoding.com/sketch -->
    <title>Logo</title>
    <desc>Created with Sketch Beta.</desc>
    <defs></defs>
    <g id="Page-1" stroke="none" stroke-width="1" fill="none" fill-rule="evenodd" sketch:type="MSPage">
        <g id="Logo" sketch:type="MSLayerGroup" transform="translate(0.500000, 0.500000)">
            <path d="M194.366758,439.986922 C221.542557,467.203648 221.542557,511.35409 194.366758,538.570816 C167.190959,565.808006 87.9964244,601.026041 60.8206255,573.788851 C33.6448265,546.551661 68.7912382,467.203648 95.9670372,439.986922 C123.142836,412.749732 167.190959,412.749732 194.366758,439.986922 L194.366758,439.986922 L194.366758,439.986922 Z" id="Fill-1" fill="#EFC75E" sketch:type="MSShapeGroup"></path>
            <path d="M112.696115,427.616613 L112.573333,429.969939 C112.573333,480.822243 153.807697,522.056607 204.660001,522.056607 L206.634749,521.954289 C220.601227,495.60727 216.52895,462.169577 194.366758,439.97669 C172.245494,417.824731 138.971511,413.701294 112.696115,427.616613 L112.696115,427.616613 L112.696115,427.616613 Z" id="Fill-2" fill="#DEB957" sketch:type="MSShapeGroup"></path>
            <path d="M337.234108,287.153748 C420.552079,370.481951 437.229998,488.895175 358.055927,568.079477 L320.668739,605.476897 C241.494668,684.640736 296.327163,494.717098 212.998961,411.388896 C129.68099,328.060693 -60.2528795,382.893188 18.9314233,303.719117 L56.3288424,266.321698 C135.502913,187.157859 253.895673,203.835777 337.234108,287.153748 L337.234108,287.153748 L337.234108,287.153748 Z" id="Fill-3" fill="#6C476E" sketch:type="MSShapeGroup"></path>
            <path d="M613.596431,10.8016571 C638.920265,36.1254908 627.78801,196.683713 472.110381,352.371573 C370.722959,453.748763 306.681798,489.212362 306.681798,489.212362 C238.875314,534.744104 206.082229,503.649505 163.415406,460.982682 C120.441627,417.998672 89.0093778,385.481846 135.185726,317.71629 C135.185726,317.71629 171.130222,253.204463 272.036747,152.297939 C427.581361,-3.26713944 588.170279,-14.6142633 613.596431,10.8016571 L613.596431,10.8016571 L613.596431,10.8016571 Z" id="Fill-4" fill="#F4F0D3" sketch:type="MSShapeGroup"></path>
            <path d="M409.082173,268.715951 C394.737116,268.715951 381.241303,263.12936 371.091306,252.979363 C350.146705,232.034761 350.167169,197.952462 371.091306,177.007861 C381.241303,166.868096 394.737116,161.281505 409.082173,161.281505 C423.427229,161.281505 436.923042,166.868096 447.073039,177.007861 C457.223036,187.157859 462.799396,200.653671 462.799396,214.998728 C462.799396,229.343784 457.223036,242.839597 447.073039,252.979363 C436.923042,263.119128 423.427229,268.715951 409.082173,268.715951 L409.082173,268.715951 L409.082173,268.715951 Z" id="Fill-5" fill="#819F7F" sketch:type="MSShapeGroup"></path>
            <path d="M409.082173,168.955394 C421.370627,168.955394 432.942852,173.743901 441.639926,182.430743 C450.357464,191.138049 455.125507,202.68981 455.125507,214.998728 C455.125507,227.297414 450.347232,238.859407 441.639926,247.556481 C432.942852,256.253555 421.380859,261.042062 409.082173,261.042062 C396.773255,261.042062 385.221494,256.253555 376.52442,247.556481 C358.577751,229.609813 358.577751,200.387643 376.52442,182.430743 C385.211262,173.743901 396.763023,168.955394 409.082173,168.955394 L409.082173,168.955394 L409.082173,168.955394 Z M409.082173,153.607616 C393.37628,153.607616 377.649923,159.593249 365.678656,171.58498 C341.695195,195.568441 341.695195,234.439247 365.678656,258.412476 C377.649923,270.393975 393.37628,276.38984 409.082173,276.38984 C424.788066,276.38984 440.493958,270.393975 452.485689,258.412476 C476.46915,234.439247 476.46915,195.568441 452.485689,171.58498 C440.493958,159.603481 424.788066,153.607616 409.082173,153.607616 L409.082173,153.607616 L409.082173,153.607616 Z" id="Fill-6" fill="#2D4659" sketch:type="MSShapeGroup"></path>
            <path d="M473.921419,19.5805861 C480.694905,50.4910111 497.925344,82.4553168 524.937433,109.426479 C548.337679,132.796029 575.47255,148.808877 602.43348,157.096677 C630.530146,82.1483612 627.828937,25.054627 613.586199,10.8016571 C599.72204,-3.0625024 545.544383,-5.91718911 473.921419,19.5805861 L473.921419,19.5805861 L473.921419,19.5805861 Z" id="Fill-7" fill="#6C476E" sketch:type="MSShapeGroup"></path>
            <path d="M337.90941,468.400775 C266.491083,516.367697 231.938119,483.615539 187.010056,438.667013 C141.734111,393.4013 108.613606,359.145059 157.255831,287.747196 C157.255831,287.747196 162.023874,279.244527 172.634304,263.855821 C146.123576,298.142757 135.165262,317.71629 135.165262,317.71629 C88.9889141,385.492078 120.421163,418.008904 163.394942,460.982682 C206.061765,503.649505 238.854851,534.744104 306.661334,489.212362 C306.661334,489.212362 318.468891,482.643513 339.853462,467.254808 L337.90941,468.400775 L337.90941,468.400775 L337.90941,468.400775 Z" id="Fill-8" fill="#DAD3AF" sketch:type="MSShapeGroup"></path>
            <path d="M314.110122,320.509586 C326.337185,332.726417 303.121113,375.761587 244.0424,434.830069 C184.973918,493.89855 149.326145,509.747689 137.08885,497.530858 C124.872019,485.314026 140.721158,449.64579 199.78964,390.577309 C258.858121,331.508827 301.903523,308.282523 314.110122,320.509586 L314.110122,320.509586 L314.110122,320.509586 Z" id="Fill-9" fill="#A45B5C" sketch:type="MSShapeGroup"></path>
        </g>
    </g>
</svg>